<svg width="108" height="40" viewBox="0 0 108 40" fill="none" xmlns="http://www.w3.org/2000/svg">
<g clip-path="url(#clip0_1_43741)">
<path d="M56.8804 11.7291C56.8804 12.9273 55.9152 13.8925 54.717 13.8925C53.5188 13.8925 52.5536 12.9273 52.5536 11.7291C52.5536 10.5309 53.4855 9.56569 54.717 9.56569C55.9485 9.59897 56.8804 10.5642 56.8804 11.7291ZM47.9605 16.0892C47.9605 16.2889 47.9605 16.6217 47.9605 16.6217C47.9605 16.6217 46.9287 15.2904 44.732 15.2904C41.1041 15.2904 38.2751 18.0529 38.2751 21.8805C38.2751 25.6748 41.0709 28.4706 44.732 28.4706C46.962 28.4706 47.9605 27.106 47.9605 27.106V27.6718C47.9605 27.9381 48.1602 28.1378 48.4265 28.1378H51.1224V15.6232C51.1224 15.6232 48.6595 15.6232 48.4265 15.6232C48.1602 15.6232 47.9605 15.8562 47.9605 16.0892ZM47.9605 24.1105C47.4613 24.8427 46.4628 25.4751 45.2646 25.4751C43.1344 25.4751 41.5035 24.1438 41.5035 21.8805C41.5035 19.6172 43.1344 18.2859 45.2646 18.2859C46.4295 18.2859 47.4945 18.9516 47.9605 19.6505V24.1105ZM53.1194 15.6232H56.3146V28.1378H53.1194V15.6232ZM100.848 15.2904C98.6509 15.2904 97.6191 16.6217 97.6191 16.6217V9.59897H94.424V28.1378C94.424 28.1378 96.8869 28.1378 97.1199 28.1378C97.3862 28.1378 97.5859 27.9048 97.5859 27.6718V27.106C97.5859 27.106 98.6177 28.4706 100.814 28.4706C104.442 28.4706 107.271 25.6748 107.271 21.8805C107.271 18.0862 104.442 15.2904 100.848 15.2904ZM100.315 25.4418C99.0836 25.4418 98.1184 24.8094 97.6191 24.0772V19.6172C98.1184 18.9516 99.1835 18.2526 100.315 18.2526C102.445 18.2526 104.076 19.584 104.076 21.8472C104.076 24.1105 102.445 25.4418 100.315 25.4418ZM92.7598 20.7156V28.171H89.5646V21.0817C89.5646 19.0181 88.8989 18.1861 87.1016 18.1861C86.1364 18.1861 85.1379 18.6853 84.5055 19.4175V28.1378H81.3103V15.6232H83.8399C84.1061 15.6232 84.3058 15.8562 84.3058 16.0892V16.6217C85.2378 15.6565 86.4692 15.2904 87.7007 15.2904C89.0986 15.2904 90.2635 15.6898 91.1955 16.4886C92.3271 17.4205 92.7598 18.6187 92.7598 20.7156ZM73.5553 15.2904C71.3586 15.2904 70.3269 16.6217 70.3269 16.6217V9.59897H67.1317V28.1378C67.1317 28.1378 69.5946 28.1378 69.8276 28.1378C70.0939 28.1378 70.2936 27.9048 70.2936 27.6718V27.106C70.2936 27.106 71.3254 28.4706 73.5221 28.4706C77.1499 28.4706 79.979 25.6748 79.979 21.8805C80.0123 18.0862 77.1832 15.2904 73.5553 15.2904ZM73.0228 25.4418C71.7913 25.4418 70.8261 24.8094 70.3269 24.0772V19.6172C70.8261 18.9516 71.8912 18.2526 73.0228 18.2526C75.1529 18.2526 76.7838 19.584 76.7838 21.8472C76.7838 24.1105 75.1529 25.4418 73.0228 25.4418ZM64.3692 15.2904C65.3344 15.2904 65.8336 15.4568 65.8336 15.4568V18.419C65.8336 18.419 63.171 17.5204 61.5068 19.4175V28.171H58.3116V15.6232C58.3116 15.6232 60.7746 15.6232 61.0075 15.6232C61.2738 15.6232 61.4735 15.8562 61.4735 16.0892V16.6217C62.0726 15.9228 63.3707 15.2904 64.3692 15.2904ZM31.1857 27.0061C31.0193 26.6067 30.8529 26.174 30.6865 25.8079C30.4202 25.2088 30.1539 24.643 29.921 24.1105L29.8877 24.0772C27.5911 19.0847 25.1282 14.0257 22.5321 9.03316L22.4322 8.83346C22.166 8.33421 21.8997 7.80168 21.6334 7.26914C21.3006 6.67004 20.9678 6.03766 20.4352 5.43856C19.3702 4.10723 17.8391 3.375 16.2083 3.375C14.5441 3.375 13.0463 4.10723 11.948 5.372C11.4487 5.9711 11.0826 6.60348 10.7498 7.20258C10.4835 7.73511 10.2173 8.26764 9.951 8.76689L9.85115 8.96659C7.28834 13.9591 4.79209 19.0181 2.49555 24.0106L2.46226 24.0772C2.22928 24.6097 1.96301 25.1756 1.69675 25.7746C1.53033 26.1408 1.36392 26.5402 1.1975 26.9728C0.764817 28.2043 0.631684 29.3692 0.7981 30.5674C1.16422 33.0637 2.82838 35.1605 5.12493 36.0925C5.99029 36.4586 6.88894 36.625 7.82087 36.625C8.08714 36.625 8.41997 36.5917 8.68624 36.5584C9.78458 36.4253 10.9162 36.0592 12.0146 35.4268C13.3792 34.6613 14.6772 33.5629 16.1417 31.9653C17.6062 33.5629 18.9375 34.6613 20.2688 35.4268C21.3672 36.0592 22.4988 36.4253 23.5971 36.5584C23.8634 36.5917 24.1962 36.625 24.4625 36.625C25.3944 36.625 26.3264 36.4586 27.1585 36.0925C29.4883 35.1605 31.1192 33.0304 31.4853 30.5674C31.7515 29.4025 31.6184 28.2376 31.1857 27.0061ZM16.175 28.7369C14.3777 26.4736 13.2128 24.3435 12.8134 22.5462C12.6469 21.7807 12.6137 21.115 12.7135 20.5159C12.7801 19.9834 12.9798 19.5174 13.246 19.118C13.8784 18.2193 14.9435 17.6535 16.175 17.6535C17.4065 17.6535 18.5048 18.1861 19.1039 19.118C19.3702 19.5174 19.5699 19.9834 19.6364 20.5159C19.7363 21.115 19.703 21.8139 19.5366 22.5462C19.1372 24.3102 17.9723 26.4403 16.175 28.7369ZM29.455 30.3012C29.222 32.0319 28.0571 33.5297 26.4262 34.1953C25.6274 34.5282 24.7621 34.628 23.8967 34.5282C23.0646 34.4283 22.2325 34.162 21.3672 33.6628C20.169 32.9971 18.9708 31.9653 17.5729 30.4343C19.7696 27.7384 21.1009 25.2754 21.6001 23.0787C21.8331 22.0469 21.8664 21.115 21.7666 20.2496C21.6334 19.4175 21.3339 18.652 20.8679 17.9864C19.8361 16.4886 18.1054 15.6232 16.175 15.6232C14.2445 15.6232 12.5138 16.5219 11.482 17.9864C11.0161 18.652 10.7165 19.4175 10.5834 20.2496C10.4502 21.115 10.4835 22.0802 10.7498 23.0787C11.249 25.2754 12.6137 27.7716 14.7771 30.4676C13.4125 31.9986 12.181 33.0304 10.9828 33.6961C10.1174 34.1953 9.28534 34.4616 8.45325 34.5614C7.55461 34.6613 6.68924 34.5282 5.92372 34.2286C4.29284 33.5629 3.12793 32.0652 2.89495 30.3345C2.7951 29.5024 2.86166 28.6703 3.1945 27.7384C3.29435 27.4055 3.46076 27.0727 3.62718 26.6733C3.86016 26.1408 4.12643 25.5749 4.39269 25.0091L4.42598 24.9426C6.72252 19.9834 9.18549 14.9243 11.7483 9.99837L11.8481 9.79867C12.1144 9.29942 12.3807 8.76689 12.6469 8.26764C12.9132 7.73511 13.2128 7.23586 13.5789 6.80318C14.2778 6.00438 15.2098 5.5717 16.2415 5.5717C17.2733 5.5717 18.2053 6.00438 18.9042 6.80318C19.2703 7.23586 19.5699 7.73511 19.8361 8.26764C20.1024 8.76689 20.3687 9.29942 20.6349 9.79867L20.7348 9.99837C23.2643 14.9576 25.7273 20.0166 28.0238 24.9758V25.0091C28.2901 25.5417 28.5231 26.1408 28.7893 26.6733C28.9558 27.0727 29.1222 27.4055 29.222 27.7384C29.4883 28.6037 29.5881 29.4358 29.455 30.3012Z" fill="#5E636E"/>
</g>
<defs>
<clipPath id="clip0_1_43741">
<rect width="107" height="40" fill="white" transform="translate(0.5)"/>
</clipPath>
</defs>
</svg>
