<svg width="31" height="30" viewBox="0 0 31 30" fill="none" xmlns="http://www.w3.org/2000/svg">
<path d="M18.2423 30C12.2423 30 6.30894 30 0.375611 30C0.375611 20 0.375611 10 0.37561 1.4623e-06C10.3756 7.95634e-07 20.3756 8e-07 30.3756 0C30.3756 10 30.3756 20 30.3756 30C26.3534 30 22.3312 30 18.2423 30ZM1.06502 27.9684C1.06502 28.4046 1.06502 28.8408 1.06502 29.2828C10.6449 29.2828 20.0748 29.2667 29.6423 29.2667C29.6423 20.2972 29.6479 9.79032 29.6479 0.786958C20.1151 0.786958 10.6405 0.786958 1.11194 0.786958C1.11194 9.82558 1.11194 18.8391 1.06502 27.9684Z" fill="#FAFAFB" fill-opacity="0.1"/>
<path fill-rule="evenodd" clip-rule="evenodd" d="M1.04224 27.8657V0.800049H29.5782C29.5782 9.80341 29.5782 18.7729 29.5159 27.8064C19.9832 27.8688 10.5127 27.8672 1.04224 27.8657ZM25.3923 19.4694L25.3922 19.4694H22.6099V13.9981L21.9482 13.9661L21.9482 19.4332L21.9482 19.4332H19.1367V7.64954L19.1367 7.64951H21.8906V13.1643H22.5765L22.5765 7.62714L22.5765 7.6271C22.76 7.6271 22.9414 7.62691 23.1213 7.62672C23.83 7.62597 24.5138 7.62525 25.1975 7.63639C25.2422 7.63712 25.2858 7.69937 25.3294 7.76163C25.3497 7.79056 25.37 7.8195 25.3904 7.84226L25.3904 7.90475L25.3913 7.90665C25.3921 11.0108 25.3922 14.0739 25.3922 17.1519L25.3923 19.4694ZM18.4322 19.4778H15.642C15.642 19.0369 15.6417 18.5963 15.6415 18.1561C15.6407 16.9819 15.64 15.8096 15.6445 14.6374C15.6461 14.2083 15.5961 13.8602 14.9717 14.021V19.4795H12.201V7.67555C12.6832 7.67555 13.1629 7.67393 13.641 7.67231C14.8598 7.66817 16.0675 7.66408 17.2746 7.68709C17.8349 7.69777 18.1913 8.08187 18.4008 8.7047C18.4186 10.0484 18.4146 11.2934 18.4107 12.5383L17.6517 13.5675L17.6517 13.5676C17.8483 13.8225 18.1041 14.1541 18.3853 14.5807C18.4179 16.2764 18.4251 17.8771 18.4322 19.4778ZM14.9642 11.4119V13.0577C15.4311 13.1529 15.6446 12.9792 15.6457 12.5543C15.6474 11.8723 15.6473 11.1902 15.6471 10.5081V10.5071C15.6469 9.95122 15.6468 9.39536 15.6477 8.8395C15.6484 8.3978 15.4243 8.26742 14.9642 8.35252V11.4119ZM8.6938 13.0765H11.4943C11.4923 11.6966 11.4903 10.3168 11.4755 8.83375C11.2351 7.99749 10.7347 7.65798 9.97028 7.66466C9.45826 7.66914 8.94617 7.66764 8.43408 7.66615C7.81409 7.66434 7.19411 7.66252 6.57426 7.67132C5.69496 7.68379 5.22341 8.1626 5.22128 9.04305C5.21404 12.0396 5.2134 15.0362 5.2215 18.0327C5.22401 18.9623 5.73941 19.4741 6.66267 19.4836C7.60162 19.4932 8.54073 19.4901 9.47979 19.4869C9.60619 19.4865 9.73258 19.4861 9.85896 19.4857C10.8353 19.4826 11.1776 19.2295 11.51 18.2795C11.5023 16.8982 11.4947 15.517 11.4425 14.0506C10.4985 13.9654 9.59902 13.9654 8.64371 13.9654C8.64371 14.154 8.64372 14.3378 8.64373 14.5185C8.64375 14.9103 8.64378 15.2871 8.64368 15.6639C8.64362 15.8972 8.64429 16.1305 8.64495 16.3638C8.64701 17.0847 8.64907 17.8055 8.6297 18.5258C8.627 18.626 8.54332 18.724 8.45963 18.822C8.42093 18.8673 8.38223 18.9127 8.35154 18.9582C8.31878 18.9165 8.28273 18.8761 8.24668 18.8358C8.16362 18.7427 8.08057 18.6497 8.0378 18.5408C8.00099 18.4472 8.0097 18.3355 8.01841 18.224C8.02222 18.1752 8.02603 18.1264 8.02603 18.0792C8.02602 17.4198 8.02561 16.7605 8.02521 16.1011C8.02384 13.8538 8.02248 11.6066 8.03654 9.35939C8.037 9.28573 8.02555 9.19947 8.01365 9.10979C7.97232 8.79831 7.92551 8.44549 8.35286 8.43564C8.79665 8.42542 8.74831 8.76987 8.70538 9.07578C8.69239 9.16831 8.6799 9.25731 8.68167 9.3319C8.70336 10.2466 8.69986 11.1619 8.69638 12.0703C8.69509 12.4068 8.6938 12.7423 8.6938 13.0765Z" fill="#5E636E"/>
</svg>
