<svg width="143" height="40" viewBox="0 0 143 40" fill="none" xmlns="http://www.w3.org/2000/svg">
<g clip-path="url(#clip0_1_43743)">
<path d="M30.6298 8.58178C28.3359 7.50854 25.8832 6.72856 23.319 6.28442C23.0041 6.85379 22.6361 7.61959 22.3825 8.22878C19.6566 7.81885 16.9558 7.81885 14.2801 8.22878C14.0265 7.61959 13.6502 6.85379 13.3325 6.28442C10.7655 6.72856 8.30996 7.51141 6.0161 8.58747C1.38935 15.5791 0.135119 22.397 0.762237 29.1182C3.83094 31.4098 6.80488 32.8019 9.72863 33.7129C10.4505 32.7193 11.0943 31.6632 11.649 30.5501C10.5926 30.1487 9.58091 29.6534 8.62493 29.0784C8.87854 28.8905 9.12662 28.694 9.3663 28.4919C15.1971 31.2191 21.5324 31.2191 27.2935 28.4919C27.536 28.694 27.784 28.8905 28.0349 29.0784C27.0761 29.6562 26.0616 30.1515 25.0052 30.553C25.5599 31.6632 26.2009 32.7222 26.9256 33.7157C29.8522 32.8047 32.8289 31.4127 35.8976 29.1182C36.6334 21.3267 34.6406 14.5713 30.6298 8.58178ZM12.4434 24.9847C10.693 24.9847 9.25758 23.3507 9.25758 21.3608C9.25758 19.3709 10.6624 17.7341 12.4434 17.7341C14.2244 17.7341 15.6598 19.3681 15.6291 21.3608C15.6319 23.3507 14.2244 24.9847 12.4434 24.9847ZM24.2165 24.9847C22.4661 24.9847 21.0307 23.3507 21.0307 21.3608C21.0307 19.3709 22.4354 17.7341 24.2165 17.7341C25.9975 17.7341 27.4329 19.3681 27.4022 21.3608C27.4022 23.3507 25.9975 24.9847 24.2165 24.9847Z" fill="#5E636E"/>
<path d="M48.2305 13.2824H55.8393C57.6736 13.2824 59.2232 13.5756 60.4944 14.1592C61.7622 14.7427 62.7129 15.5569 63.3429 16.5988C63.9725 17.6407 64.2901 18.8335 64.2901 20.1772C64.2901 21.4924 63.9613 22.6851 63.3036 23.7527C62.6458 24.823 61.6452 25.6685 60.2991 26.292C58.9531 26.9154 57.2859 27.2285 55.2934 27.2285H48.2305V13.2824ZM55.2151 23.6844C56.4499 23.6844 57.4006 23.3684 58.0637 22.7392C58.7272 22.1072 59.059 21.2475 59.059 20.1572C59.059 19.1466 58.7631 18.341 58.1725 17.7375C57.5818 17.134 56.687 16.8294 55.4911 16.8294H53.1108V23.6844H55.2151Z" fill="#5E636E"/>
<path d="M75.6816 27.2115C74.628 26.9326 73.6773 26.5283 72.8331 25.996V22.6881C73.4714 23.1919 74.3268 23.6076 75.3999 23.9349C76.4729 24.2595 77.51 24.4217 78.5131 24.4217C78.9814 24.4217 79.3355 24.3591 79.575 24.2338C79.8149 24.1086 79.9349 23.9577 79.9349 23.784C79.9349 23.5848 79.8708 23.4197 79.7397 23.2858C79.6085 23.1521 79.3549 23.041 78.9789 22.9471L76.6376 22.409C75.2969 22.0902 74.3462 21.649 73.7808 21.0825C73.2149 20.5188 72.9332 19.7786 72.9332 18.862C72.9332 18.0905 73.1785 17.4216 73.6749 16.8494C74.168 16.2772 74.8704 15.8359 75.7817 15.5256C76.6934 15.2125 77.7577 15.0559 78.9814 15.0559C80.0739 15.0559 81.0745 15.1755 81.9863 15.4146C82.8976 15.6538 83.65 15.9583 84.2495 16.3312V19.4598C83.6359 19.0869 82.9335 18.7937 82.1311 18.5716C81.331 18.3525 80.5091 18.2443 79.6614 18.2443C78.4378 18.2443 77.8277 18.4578 77.8277 18.8819C77.8277 19.0812 77.9224 19.2293 78.1119 19.3289C78.3013 19.4285 78.6496 19.531 79.1543 19.6392L81.1051 19.9979C82.3793 20.2228 83.3294 20.6185 83.9536 21.1821C84.5783 21.7458 84.8902 22.5799 84.8902 23.6844C84.8902 24.8943 84.3748 25.8536 83.3406 26.5653C82.3064 27.277 80.8404 27.6328 78.9396 27.6328C77.8219 27.63 76.7352 27.4905 75.6816 27.2115Z" fill="#5E636E"/>
<path d="M89.4955 26.7929C88.3783 26.2349 87.5335 25.4777 86.9705 24.5212C86.4075 23.5647 86.1233 22.4886 86.1233 21.293C86.1233 20.0974 86.4158 19.027 87.0011 18.0847C87.5865 17.1424 88.4448 16.4023 89.5766 15.8643C90.708 15.3262 92.0598 15.0586 93.6347 15.0586C95.5855 15.0586 97.205 15.4771 98.4928 16.314V19.9607C98.0386 19.6419 97.5086 19.3828 96.9039 19.1836C96.2991 18.9843 95.6525 18.8846 94.9613 18.8846C93.7517 18.8846 92.8069 19.1095 92.124 19.5622C91.441 20.0148 91.0985 20.6041 91.0985 21.3357C91.0985 22.0531 91.4298 22.6395 92.0934 23.1007C92.7569 23.559 93.7182 23.7896 94.9807 23.7896C95.6302 23.7896 96.2714 23.6928 96.9039 23.5021C97.5339 23.3085 98.0775 23.0722 98.5316 22.7932V26.3203C97.102 27.1971 95.4436 27.6355 93.5565 27.6355C91.968 27.6298 90.6132 27.3509 89.4955 26.7929Z" fill="#5E636E"/>
<path d="M103.359 26.7931C102.233 26.2352 101.375 25.4722 100.784 24.5015C100.193 23.5307 99.8946 22.449 99.8946 21.2534C99.8946 20.0577 100.19 18.9902 100.784 18.0536C101.377 17.117 102.23 16.3826 103.351 15.8502C104.468 15.3179 105.803 15.0531 107.35 15.0531C108.897 15.0531 110.232 15.3179 111.35 15.8502C112.468 16.3826 113.321 17.1114 113.906 18.0422C114.491 18.9731 114.784 20.0406 114.784 21.2505C114.784 22.4461 114.491 23.5279 113.906 24.4986C113.321 25.4694 112.465 26.2323 111.339 26.7903C110.213 27.3482 108.883 27.6272 107.348 27.6272C105.812 27.6272 104.482 27.3511 103.359 26.7931ZM109.287 23.2575C109.761 22.7735 110.001 22.133 110.001 21.3359C110.001 20.5388 109.764 19.904 109.287 19.4343C108.814 18.9617 108.167 18.7254 107.348 18.7254C106.514 18.7254 105.862 18.9617 105.385 19.4343C104.912 19.9069 104.674 20.5388 104.674 21.3359C104.674 22.133 104.912 22.7735 105.385 23.2575C105.859 23.7414 106.514 23.9862 107.348 23.9862C108.167 23.9834 108.814 23.7414 109.287 23.2575Z" fill="#5E636E"/>
<path d="M126.506 15.7933V20.0976C126.01 19.7645 125.369 19.5994 124.575 19.5994C123.535 19.5994 122.733 19.9211 122.175 20.5644C121.615 21.2078 121.336 22.2098 121.336 23.5649V27.2315H116.556V15.5741H121.239V19.2805C121.498 17.9255 121.919 16.9263 122.498 16.28C123.076 15.6367 123.822 15.315 124.731 15.315C125.419 15.315 126.01 15.4745 126.506 15.7933Z" fill="#5E636E"/>
<path d="M142.388 12.8838V27.2314H137.608V24.6209C137.204 25.6031 136.591 26.3518 135.766 26.8641C134.94 27.3738 133.92 27.6299 132.711 27.6299C131.63 27.6299 130.688 27.3623 129.882 26.8243C129.076 26.2863 128.455 25.549 128.017 24.6124C127.583 23.6758 127.362 22.6168 127.362 21.4326C127.349 20.2113 127.58 19.1153 128.056 18.1446C128.53 17.1738 129.202 16.4166 130.066 15.8729C130.93 15.3291 131.917 15.0559 133.023 15.0559C135.3 15.0559 136.828 16.0664 137.608 18.0848V12.8838H142.388ZM136.895 23.1776C137.382 22.6937 137.625 22.0646 137.625 21.2959C137.625 20.5529 137.388 19.9466 136.914 19.4826C136.44 19.0186 135.791 18.7851 134.974 18.7851C134.169 18.7851 133.525 19.0214 133.043 19.4939C132.56 19.9665 132.321 20.5785 132.321 21.3358C132.321 22.093 132.56 22.7108 133.043 23.189C133.525 23.6672 134.16 23.9064 134.955 23.9064C135.76 23.9036 136.407 23.6616 136.895 23.1776Z" fill="#5E636E"/>
<path d="M68.3182 16.815C69.6342 16.815 70.7014 15.8361 70.7014 14.6287C70.7014 13.4212 69.6342 12.4424 68.3182 12.4424C67.0018 12.4424 65.9351 13.4212 65.9351 14.6287C65.9351 15.8361 67.0018 16.815 68.3182 16.815Z" fill="#5E636E"/>
<path d="M65.933 18.3211C67.3932 18.9644 69.2051 18.9929 70.6988 18.3211V27.294H65.933V18.3211Z" fill="#5E636E"/>
</g>
<defs>
<clipPath id="clip0_1_43743">
<rect width="142" height="40" fill="white" transform="translate(0.5)"/>
</clipPath>
</defs>
</svg>
