<svg width="137" height="40" viewBox="0 0 137 40" fill="none" xmlns="http://www.w3.org/2000/svg">
<g clip-path="url(#clip0_1_43744)">
<path fill-rule="evenodd" clip-rule="evenodd" d="M8.78845 16.6969L16.6239 11.6984L24.4594 16.6699L16.6239 21.6684L24.4188 26.6939L32.2543 21.6954L24.4188 16.6969L32.2543 11.6984L24.4188 6.69995L16.6239 11.6984L8.78845 6.69995L0.953003 11.6984L8.78845 16.6699L0.953003 21.6684L8.78845 26.6939L16.6239 21.6954L8.78845 16.6969ZM16.5834 23.303L8.74793 28.3015L16.5834 33.3L24.4188 28.3015L16.5834 23.303ZM44.737 11.6983H38.4011V28.2879H44.8585C48.9924 28.2879 52.1131 25.8697 52.1131 20.493V19.3717C52.1131 14.0355 48.7763 11.6983 44.737 11.6983ZM41.9405 25.2618V14.7109H44.5343C46.8714 14.7109 48.4926 16.2105 48.4926 19.5473V20.4254C48.4926 23.7622 46.9525 25.2618 44.6559 25.2618H41.9405ZM56.8279 14.873H54.0449V28.3284H57.5439V22.1546C57.5439 19.3176 58.2464 18.3179 61.1239 18.3179H62.5829V14.738H61.7048C59.2055 14.738 57.8276 15.8727 57.2872 17.9937L56.8279 14.873ZM63.2854 21.4926V21.8709C63.2854 26.302 65.7441 28.6256 70.0806 28.6661C74.1604 28.6661 76.8758 26.2885 76.8758 21.8709V21.4926C76.8758 16.994 74.0794 14.5353 70.0806 14.5353C66.1629 14.5353 63.2854 16.994 63.2854 21.4926ZM73.2958 21.4926V21.8304C73.2958 24.2486 72.0395 25.586 70.0401 25.6265C68.0407 25.6265 66.7843 24.2486 66.7843 21.8304V21.4926C66.7843 18.8718 68.0812 17.4939 70.0401 17.4939C72.0395 17.4939 73.2958 18.9934 73.2958 21.4926ZM81.6311 14.873H78.7131L78.6726 32.9756H82.0904V26.1804C82.8064 27.7205 84.2655 28.6796 86.3864 28.6796C89.5611 28.6796 92.0604 26.3425 92.0604 21.9249V21.5467C92.0604 16.994 89.8043 14.5353 86.3864 14.5353C84.1709 14.5353 82.6713 15.7106 81.9689 17.4128L81.6311 14.873ZM88.5074 21.5332V21.8304C88.5074 24.3431 87.2645 25.6265 85.2516 25.667C83.2928 25.667 82.0364 24.1675 82.0364 21.7899V21.5332C82.0364 19.0339 83.3333 17.5344 85.2922 17.5344C87.1294 17.5344 88.5074 18.8583 88.5074 21.5332ZM96.9373 28.3014L97.2345 25.8427C97.937 27.5854 99.396 28.6256 101.652 28.6796C105.07 28.6796 107.326 26.1264 107.326 21.6683V21.2495C107.326 16.7914 104.948 14.5758 101.733 14.5353C99.6121 14.5353 98.1126 15.4945 97.3561 17.2507V10.3744H93.9382V28.3014H96.9373ZM103.732 21.3305V21.6683C103.732 24.3431 102.53 25.6265 100.477 25.6265C98.5584 25.6265 97.2615 24.1675 97.2615 21.6683V21.3711C97.2615 19.0339 98.5989 17.4939 100.517 17.4939C102.395 17.4939 103.732 18.8718 103.732 21.3305ZM108.826 21.4926V21.8709C108.826 26.302 111.284 28.6256 115.621 28.6661C119.66 28.6661 122.416 26.2885 122.416 21.8709V21.4926C122.416 16.994 119.62 14.5353 115.621 14.5353C111.703 14.5353 108.826 16.994 108.826 21.4926ZM118.863 21.4926V21.8304C118.863 24.2486 117.62 25.586 115.607 25.6265C113.608 25.6265 112.351 24.2486 112.351 21.8304V21.4926C112.351 18.8718 113.648 17.4939 115.607 17.4939C117.607 17.4939 118.863 18.9934 118.863 21.4926ZM122.281 14.873L126.996 21.3305L121.876 28.3014H126.01L129.009 23.8433L132.089 28.3014H136.047L131.008 21.29L135.79 14.873H131.792L129.036 18.9124L126.32 14.873H122.281Z" fill="#5E636E"/>
</g>
<defs>
<clipPath id="clip0_1_43744">
<rect width="136" height="40" fill="white" transform="translate(0.5)"/>
</clipPath>
</defs>
</svg>
