<svg width="31" height="30" viewBox="0 0 31 30" fill="none" xmlns="http://www.w3.org/2000/svg">
<path d="M1.13614 30C1.12255 25.1019 1.12254 20.2038 1.12256 15.3057C1.12256 15.0872 1.12266 15.0871 1.34395 15.0871C4.04686 15.0871 6.74977 15.0879 9.45268 15.0847C9.59144 15.0846 9.67866 15.1148 9.75402 15.2471C10.2243 16.0728 10.7059 16.8921 11.184 17.7134C11.3382 17.9784 11.493 18.2431 11.666 18.5397C11.5724 18.5397 11.5121 18.5397 11.4517 18.5397C9.5853 18.5397 7.71889 18.5397 5.85248 18.5397C5.64886 18.5397 5.64871 18.5399 5.64868 18.7468C5.64861 19.4286 5.65275 20.1104 5.6454 20.7921C5.64382 20.938 5.68298 20.9805 5.83147 20.9801C7.50929 20.9749 9.18713 20.9768 10.865 20.9768C11.0739 20.9769 11.0741 20.977 11.0742 21.1786C11.0742 22.0973 11.0713 23.016 11.0772 23.9346C11.0781 24.0757 11.0355 24.1135 10.8969 24.1131C9.21421 24.1088 7.53154 24.1103 5.84887 24.1103C5.64898 24.1103 5.64875 24.1106 5.64871 24.3065C5.64859 24.9932 5.65321 25.6798 5.6451 26.3663C5.64331 26.5177 5.69218 26.5506 5.83508 26.5503C8.20918 26.5462 10.5833 26.5474 12.9574 26.5474C13.1629 26.5475 13.1631 26.5476 13.1631 26.7526C13.1632 27.826 13.1632 28.8994 13.1632 29.9864C9.15869 30 5.15421 30 1.13614 30Z" fill="#5E636E"/>
<path d="M16.3102 30C16.2966 28.1049 16.2913 26.2097 16.3027 24.3147C16.3043 24.0541 16.1592 23.8793 16.0477 23.6846C15.4821 22.6969 14.9056 21.7154 14.3313 20.7327C13.9468 20.0748 13.558 19.4194 13.174 18.7612C12.7486 18.032 12.3272 17.3006 11.9029 16.5708C11.6412 16.1205 11.3772 15.6716 11.1152 15.2214C11.0944 15.1857 11.0814 15.1454 11.056 15.0871C11.124 15.0871 11.171 15.0871 11.218 15.0871C12.7747 15.0871 14.3314 15.0886 15.8882 15.0842C16.0172 15.0839 16.0847 15.1229 16.1447 15.2395C16.6125 16.1501 17.0876 17.0569 17.5616 17.9643C17.8723 18.5591 18.1845 19.1531 18.497 19.747C18.5227 19.7958 18.5558 19.8408 18.5946 19.902C18.6742 19.7603 18.7456 19.6407 18.8099 19.5176C19.1745 18.82 19.536 18.1208 19.9011 17.4236C20.2907 16.6794 20.6815 15.9358 21.078 15.1953C21.105 15.1449 21.1843 15.0918 21.2394 15.0916C22.8154 15.0861 24.3915 15.0872 25.9676 15.0877C25.9953 15.0877 26.023 15.0948 26.0724 15.1016C26.0012 15.2292 25.9388 15.3458 25.8721 15.4599C25.3828 16.2968 24.8911 17.1323 24.4032 17.9701C23.8668 18.8913 23.3351 19.8153 22.7987 20.7365C22.3109 21.5743 21.8194 22.4099 21.3298 23.2467C21.1861 23.4923 21.0363 23.7348 20.9042 23.9866C20.8551 24.0802 20.8263 24.1961 20.826 24.3019C20.8215 26.1922 20.8227 28.0825 20.8227 29.9864C19.3231 30 17.8234 30 16.3102 30Z" fill="#5E636E"/>
<path d="M0.832397 10.7157C1.09816 10.6175 1.36574 10.5341 1.62937 10.4397C2.70288 10.0551 3.7752 9.6673 4.8479 9.28051C5.54261 9.03002 6.23776 8.78074 6.93175 8.52826C8.0033 8.13842 9.07305 7.74361 10.1454 7.35591C11.2399 6.96016 12.3371 6.57161 13.4323 6.17771C14.2327 5.88985 15.0317 5.5981 15.8314 5.30866C16.7412 4.97943 17.6512 4.65085 18.5611 4.32196C19.4708 3.99312 20.3805 3.66423 21.2902 3.33539C22.2001 3.00651 23.1101 2.67797 24.0198 2.34869C24.8196 2.0592 25.6189 1.76833 26.4187 1.4791C27.4384 1.1104 28.4586 0.743274 29.4782 0.374248C29.7638 0.270859 30.048 0.163541 30.3324 0.0566948C30.3528 0.0490201 30.3692 0.0303991 30.3778 0.0084336C30.4261 8.64671e-10 30.484 0 30.5421 0C30.5423 1.8478 30.5423 3.6956 30.5423 5.557C30.2723 5.61361 30.0021 5.65452 29.7326 5.70014C29.3706 5.76144 29.0092 5.82641 28.6475 5.88975C28.295 5.95148 27.9425 6.01313 27.59 6.07481C27.2793 6.12918 26.9685 6.18332 26.6578 6.23797C26.3565 6.29097 26.0554 6.34497 25.7541 6.39768C25.3923 6.46095 25.0303 6.52284 24.6686 6.58623C24.3163 6.64799 23.9642 6.71143 23.6118 6.77313C23.301 6.82756 22.99 6.88039 22.6791 6.9343C22.3822 6.98577 22.0854 7.03755 21.7885 7.08953C21.4779 7.14394 21.1673 7.1987 20.8566 7.25339C20.5553 7.30644 20.2541 7.35989 19.9528 7.41262C19.5911 7.4759 19.2292 7.53832 18.8675 7.60164C18.5152 7.66333 18.163 7.72599 17.8107 7.78768C17.5 7.84208 17.1891 7.89513 16.8785 7.94988C16.5773 8.00295 16.2765 8.05774 15.9754 8.1112C15.6231 8.17374 15.2708 8.23551 14.9185 8.2979C14.5525 8.36272 14.1868 8.42896 13.8206 8.4926C13.4631 8.5547 13.105 8.61253 12.7477 8.67542C12.2101 8.77007 11.6732 8.86917 11.1355 8.96321C10.6761 9.04354 10.2155 9.11683 9.75619 9.19793C9.17243 9.30101 8.58998 9.41155 8.00606 9.51369C7.58828 9.58676 7.16845 9.64805 6.75057 9.72058C6.33807 9.79218 5.9274 9.87427 5.51497 9.94631C5.09724 10.0193 4.67796 10.0834 4.26008 10.1555C3.90774 10.2163 3.55673 10.2848 3.20458 10.3468C2.84281 10.4105 2.48026 10.4697 2.11827 10.5322C1.77026 10.5922 1.42243 10.6534 1.07476 10.7154C1.00143 10.7285 0.929167 10.7475 0.844405 10.7639C0.832397 10.7511 0.832397 10.7382 0.832397 10.7157Z" fill="#5E636E"/>
</svg>
