<svg width="80" height="40" viewBox="0 0 80 40" fill="none" xmlns="http://www.w3.org/2000/svg">
<g clip-path="url(#clip0_1_43742)">
<path d="M0.931274 5.86865V27.9228L3.75291 27.9337V17.4318H10.5357V14.6531H3.74205V8.63636H12.5868V5.86865H0.931274ZM17.644 10.3539C18.1333 10.3539 18.6026 10.1579 18.9486 9.80917C19.2946 9.4604 19.4889 8.98737 19.4889 8.49414C19.4889 8.00091 19.2946 7.52789 18.9486 7.17912C18.6026 6.83036 18.1333 6.63442 17.644 6.63442C17.1547 6.63442 16.6855 6.83036 16.3395 7.17912C15.9935 7.52789 15.7991 8.00091 15.7991 8.49414C15.7991 8.98737 15.9935 9.4604 16.3395 9.80917C16.6855 10.1579 17.1547 10.3539 17.644 10.3539ZM16.2224 13.1216V27.9337H19.044V13.1216H16.2224Z" fill="#5E636E"/>
<path fill-rule="evenodd" clip-rule="evenodd" d="M29.4731 12.6949C25.7399 12.6949 23.1353 15.8783 23.1353 19.6634C23.1353 23.4485 25.7399 26.6319 29.4731 26.6319C31.1878 26.6319 32.5986 25.9755 33.6296 24.8816V26.8507C33.6368 27.4391 33.5282 28.023 33.3101 28.5688C33.092 29.1146 32.7688 29.6114 32.3591 30.0305C31.9494 30.4497 31.4613 30.7827 30.9231 31.0106C30.3849 31.2384 29.8072 31.3564 29.2235 31.3578C28.3228 31.3578 27.4329 31.0077 26.7275 30.5045L25.3166 32.9659C26.4076 33.6767 27.6686 34.0776 28.9666 34.1261C30.2647 34.1747 31.5517 33.8692 32.6919 33.2419C33.8321 32.6146 34.7832 31.6887 35.4449 30.5619C36.1065 29.4351 36.4542 28.1492 36.4512 26.8398V13.1325H33.6296V14.4562C32.5986 13.3622 31.1878 12.7059 29.4731 12.7059V12.6949ZM25.9461 19.6634C25.9461 17.3114 27.7259 15.4626 29.7879 15.4626C31.8498 15.4626 33.6188 17.3223 33.6188 19.6634C33.6188 22.0154 31.839 23.8533 29.7879 23.8533C27.7259 23.8533 25.9461 22.0154 25.9461 19.6634Z" fill="#5E636E"/>
<path d="M46.5874 15.4627C45.7804 15.4771 45.0115 15.8111 44.4469 16.3925C43.8823 16.9739 43.5674 17.7559 43.5704 18.5695V27.9338H40.7488V13.1216H43.5704V14.4781C43.9926 13.9141 44.5409 13.4586 45.1708 13.1488C45.8007 12.8389 46.4943 12.6834 47.1951 12.695C49.1703 12.695 50.6896 13.6795 51.5578 15.1892C52.0422 14.4324 52.7051 13.8084 53.4873 13.3732C54.2694 12.9379 55.1465 12.7049 56.0399 12.695C59.2413 12.695 61.249 15.2986 61.249 18.5258V27.9338H58.4491V18.5586C58.4521 17.745 58.1372 16.9629 57.5726 16.3815C57.008 15.8001 56.2391 15.4661 55.4321 15.4518C54.6251 15.4661 53.8562 15.8001 53.2916 16.3815C52.727 16.9629 52.4122 17.745 52.4151 18.5586V27.9228H49.5935V18.5586C49.5965 17.7469 49.2832 16.9664 48.7209 16.3853C48.1587 15.8042 47.3925 15.469 46.5874 15.4518V15.4627Z" fill="#5E636E"/>
<path fill-rule="evenodd" clip-rule="evenodd" d="M76.258 14.8063C75.6173 14.1328 74.8469 13.5982 73.9942 13.2352C73.1414 12.8721 72.2241 12.6883 71.2984 12.695C67.1094 12.695 64.1358 16.2613 64.1358 20.5277C64.1358 24.7941 67.1094 28.3604 71.2984 28.3604C72.2238 28.3651 73.1405 28.1804 73.993 27.8175C74.8456 27.4546 75.6161 26.921 76.258 26.2491V27.9338H79.0688V13.1216H76.2471V14.8063H76.258ZM66.9466 20.5277C66.9466 17.7053 69.0954 15.4627 71.6023 15.4627C74.0984 15.4627 76.258 17.7053 76.258 20.5277C76.258 23.3501 74.1092 25.5817 71.6023 25.5817C69.1062 25.5817 66.9466 23.3501 66.9466 20.5277Z" fill="#5E636E"/>
</g>
<defs>
<clipPath id="clip0_1_43742">
<rect width="79" height="40" fill="white" transform="translate(0.5)"/>
</clipPath>
</defs>
</svg>
