<svg width="120" height="30" viewBox="0 0 120 30" fill="none" xmlns="http://www.w3.org/2000/svg">
<path d="M0.0837097 29.9482C0.167379 29.8501 0.244967 29.746 0.33567 29.6549C1.13872 28.8486 1.94317 28.0436 2.74898 27.24C4.70798 25.2863 6.66566 23.3313 8.62817 21.3812C10.4583 19.5626 12.2945 17.7501 14.1269 15.9338C14.9274 15.1405 15.7227 14.3419 16.5242 13.5497C18.1108 11.9816 19.6936 10.4095 21.2916 8.85324C21.8701 8.28988 22.4872 7.76604 23.0881 7.22585C23.4886 6.86592 23.8861 6.50255 24.2953 6.15273C24.6198 5.87527 24.9543 5.60866 25.2944 5.35052C25.7768 4.98439 26.2559 4.61149 26.759 4.27539C27.7204 3.63315 28.7001 3.02215 29.7512 2.52799C30.5778 2.13936 31.4164 1.78833 32.2891 1.52147C33.2037 1.24178 34.1184 0.962455 35.0668 0.811182C35.5053 0.74125 35.938 0.635422 36.3748 0.553379C36.4689 0.5357 36.5705 0.561069 36.6661 0.547701C36.823 0.525741 36.9779 0.489049 37.1333 0.456997C37.1851 0.446328 37.2352 0.423199 37.2871 0.418664C38.2522 0.33446 39.2167 0.24227 40.1828 0.172965C40.8513 0.125012 41.5219 0.0923296 42.1919 0.0815868C51.5543 -0.0685167 60.9173 0.0383755 70.28 0.0185391C79.6335 -0.00127944 88.987 0.0141947 98.3406 0.0141947C98.4544 0.0141947 98.5682 0.0141927 98.7498 0.0141927C98.6257 0.149386 98.5581 0.228813 98.4846 0.302353C94.9135 3.87409 91.3412 7.44449 87.7733 11.0194C87.6167 11.1763 87.4596 11.2476 87.2352 11.2475C74.2182 11.2429 61.2013 11.242 48.1844 11.2452C46.7549 11.2456 45.3249 11.2545 43.896 11.293C43.0005 11.3171 42.1049 11.3853 41.2127 11.4693C40.6647 11.5209 40.1258 11.6677 39.5779 11.7217C38.7681 11.8014 37.9886 11.9988 37.2211 12.2503C35.9631 12.6627 34.8186 13.2859 33.7617 14.0876C33.0665 14.615 32.397 15.1672 31.7639 15.7663C31.0738 16.4191 30.373 17.0607 29.6844 17.715C29.0255 18.3411 28.3764 18.9777 27.7225 19.6091C27.1154 20.1955 26.507 20.7805 25.9003 21.3673C25.2167 22.0285 24.5354 22.6921 23.8511 23.3526C23.2996 23.885 22.7432 24.4125 22.1923 24.9455C21.4143 25.6982 20.6397 26.4542 19.8632 27.2083C19.1423 27.9083 18.4219 28.6089 17.6988 29.3066C17.4891 29.5089 17.2746 29.7067 17.0537 29.8966C16.9942 29.9477 16.9049 29.9691 16.8256 29.9908C16.7752 30.0046 16.718 29.9939 16.6638 29.9939C11.2229 29.994 5.78202 29.9939 0.341141 29.9938C0.276024 29.9938 0.210907 29.9914 0.117652 29.9776C0.0895125 29.965 0.0837097 29.9482 0.0837097 29.9482Z" fill="#5E636E"/>
<path d="M76.1016 13.0422C79.2876 13.0458 82.4411 13.0494 85.5946 13.0547C85.6098 13.0547 85.6249 13.0805 85.659 13.1114C85.588 13.1881 85.5196 13.2674 85.4458 13.3412C82.1279 16.6599 78.808 19.9765 75.4954 23.3005C75.317 23.4795 75.1374 23.5383 74.8955 23.5382C66.1278 23.5339 57.36 23.5332 48.5922 23.5365C47.5959 23.5369 46.599 23.5487 45.6034 23.5846C45.176 23.6 44.7513 23.69 44.3255 23.7474C44.0066 23.7903 43.6847 23.8186 43.3699 23.8821C42.2994 24.0978 41.342 24.5648 40.5574 25.3199C39.0446 26.7758 37.5578 28.2589 36.0696 29.74C35.8861 29.9226 35.7072 29.9999 35.4471 29.9995C30.4617 29.9921 25.4763 29.994 20.4909 29.994C20.3754 29.994 20.2599 29.994 20.0616 29.994C20.1626 29.8533 20.2107 29.7649 20.2784 29.6958C20.597 29.3709 20.9212 29.0516 21.243 28.7298C24.4386 25.5342 27.6338 22.338 30.8313 19.1442C30.9596 19.016 31.1108 18.9109 31.2504 18.7939C31.2919 18.7591 31.333 18.7232 31.3692 18.6831C32.2949 17.6584 33.3017 16.7229 34.3971 15.8798C35.1503 15.3001 35.9475 14.7914 36.8141 14.4095C37.513 14.1014 38.2415 13.854 38.9927 13.6999C39.5452 13.5866 40.1044 13.5002 40.664 13.4279C41.4016 13.3326 42.1417 13.2544 42.8823 13.1854C43.3342 13.1433 43.7888 13.1231 44.2427 13.1095C44.8056 13.0927 45.3691 13.0872 45.9323 13.0863C55.9779 13.0708 66.0235 13.0567 76.1016 13.0422Z" fill="#5E636E"/>
<path d="M72.0743 29.8183C72.1385 29.746 72.1991 29.6701 72.2673 29.6019C82.0532 19.815 91.8399 10.029 101.623 0.239412C101.78 0.0820006 101.938 0.0103198 102.162 0.0104984C107.982 0.0151662 113.802 0.0141322 119.622 0.0147514C119.706 0.0147614 119.79 0.0232595 119.92 0.0302494C119.853 0.113896 119.812 0.169596 119.766 0.221145C119.722 0.2696 119.674 0.313684 119.628 0.359672C109.85 10.1384 100.07 19.9164 90.2973 29.7009C90.0788 29.9197 89.8647 30.0005 89.5614 30C83.7528 29.9914 77.9441 29.9928 72.1068 29.9685C72.0769 29.9026 72.0756 29.8604 72.0743 29.8183Z" fill="#5E636E"/>
<path d="M102.717 29.937C102.435 29.1731 102.152 28.4093 101.863 27.6022C101.832 27.4962 101.807 27.4336 101.782 27.3709C101.769 27.3735 101.756 27.3761 101.743 27.3787C101.743 27.4541 101.743 27.5295 101.743 27.6048C101.743 28.3836 101.743 29.1625 101.743 29.9679C101.513 29.9679 101.315 29.9679 101.116 29.9679C101.05 29.7302 101.024 26.8931 101.086 26.2356C101.386 26.2148 101.692 26.2092 102.01 26.2423C102.177 26.7049 102.342 27.1571 102.504 27.61C102.667 28.0622 102.827 28.5151 102.989 28.9676C103.013 28.9689 103.037 28.9701 103.061 28.9713C103.38 28.06 103.699 27.1486 104.017 26.2409C104.352 26.2409 104.65 26.2409 104.968 26.2409C104.968 27.4893 104.968 28.7184 104.968 29.9711C104.757 29.9711 104.559 29.9711 104.312 29.9711C104.312 29.1951 104.312 28.4301 104.316 27.6167C104.32 27.5114 104.32 27.4546 104.32 27.3977C104.302 27.3944 104.284 27.3911 104.265 27.3877C104.243 27.4586 104.221 27.5295 104.199 27.6004C104.001 28.1295 103.803 28.6585 103.605 29.1877C103.508 29.4473 103.411 29.7071 103.304 29.9929C103.143 29.9929 102.983 29.9929 102.789 29.9799C102.744 29.9541 102.732 29.9441 102.717 29.937Z" fill="#5E636E"/>
<path d="M99.058 26.2219C99.6066 26.2219 100.123 26.2219 100.655 26.2219C100.655 26.4353 100.655 26.6044 100.655 26.8035C100.289 26.8865 99.9094 26.7941 99.5027 26.8625C99.5027 27.3869 99.5027 27.9032 99.5027 28.4194C99.5027 28.9266 99.5027 29.4338 99.5027 29.9672C99.2648 29.9672 99.0551 29.9672 98.798 29.9672C98.7748 29.6321 98.7901 29.2897 98.7875 28.9485C98.7848 28.602 98.7869 28.2555 98.7869 27.909C98.7869 27.5651 98.7869 27.2212 98.7869 26.8401C98.3911 26.8401 98.0285 26.8401 97.6416 26.8401C97.6416 26.6262 97.6416 26.449 97.6416 26.2274C98.1028 26.2256 98.5642 26.2237 99.058 26.2219Z" fill="#5E636E"/>
<path d="M101.761 27.6049C101.743 27.5294 101.743 27.454 101.743 27.3787C101.756 27.3761 101.769 27.3734 101.782 27.3708C101.807 27.4335 101.832 27.4962 101.855 27.579C101.829 27.6011 101.804 27.603 101.761 27.6049Z" fill="#5E636E"/>
<path d="M104.217 27.6023C104.221 27.5295 104.243 27.4586 104.265 27.3877C104.284 27.391 104.302 27.3944 104.32 27.3977C104.32 27.4545 104.32 27.5113 104.314 27.5867C104.284 27.6048 104.259 27.6045 104.217 27.6023Z" fill="#5E636E"/>
<path d="M72.0566 29.8218C72.0757 29.8602 72.077 29.9024 72.0769 29.9656C71.9119 29.9676 71.9931 29.8925 72.0566 29.8218Z" fill="#5E636E"/>
<path d="M102.716 29.952C102.732 29.9439 102.744 29.9539 102.761 29.9769C102.767 29.9872 102.737 29.9892 102.737 29.9892C102.737 29.9892 102.715 29.9673 102.716 29.952Z" fill="#5E636E"/>
</svg>
