<svg width="113" height="40" viewBox="0 0 113 40" fill="none" xmlns="http://www.w3.org/2000/svg">
<g clip-path="url(#clip0_1_43739)">
<path d="M0.594864 1.8313H24.8197V13.9437H12.7073L0.594864 1.8313ZM0.594864 13.9437H12.7073L24.8197 26.0561H0.594864V13.9437ZM0.594864 26.0561H12.7073V38.1686L0.594864 26.0561Z" fill="#5E636E"/>
<path d="M38.4882 11.3868H48.2803V14.4985H42.1944V18.8226H48.2803V21.8656H42.1944V27.4022H38.4882V11.3868ZM50.2936 16.3743H53.7943V18.6852C53.9771 17.8911 54.3512 17.2815 54.9153 16.8548C55.4939 16.412 56.1362 16.1914 56.8372 16.1914C57.2035 16.1914 57.5088 16.2225 57.7521 16.2829V19.532C57.403 19.4898 57.0516 19.4671 56.6997 19.4632C55.7388 19.4632 55.0151 19.7752 54.5263 20.4009C54.0392 21.011 53.7943 21.926 53.7943 23.1468V27.4022H50.2952V16.3743H50.2936ZM63.2783 27.6998C62.2109 27.6998 61.2799 27.4477 60.4869 26.9445C59.7089 26.4413 59.0904 25.727 58.7025 24.8852C58.2908 24.0013 58.0835 23.001 58.0835 21.8883C58.0835 20.7899 58.2985 19.798 58.7252 18.9141C59.1253 18.0601 59.7604 17.338 60.5556 16.8321C61.3631 16.3289 62.2863 16.0767 63.3243 16.0767C64.1018 16.0767 64.7967 16.2452 65.4063 16.5805C66.0159 16.9168 66.4736 17.3746 66.7789 17.9531V16.3743H70.2563V27.4022H66.7789V25.8461C66.4736 26.3953 66.0009 26.8447 65.3603 27.1961C64.7197 27.5358 64.0037 27.7087 63.2783 27.6998ZM64.2852 24.7938C65.1236 24.7938 65.772 24.5195 66.2298 23.9703C66.6875 23.4211 66.9164 22.7267 66.9164 21.8883C66.9164 21.0648 66.6875 20.3782 66.2298 19.829C65.772 19.2798 65.1236 19.0055 64.2852 19.0055C63.4911 19.0055 62.8516 19.2721 62.3633 19.8063C61.8906 20.3405 61.654 21.0338 61.654 21.8883C61.654 22.7428 61.8906 23.4438 62.3633 23.993C62.8516 24.5272 63.4922 24.7938 64.2852 24.7938ZM72.7046 16.3743H76.2053V17.9759C76.4502 17.4106 76.8459 16.9529 77.3945 16.6032C77.9598 16.2535 78.6154 16.0767 79.3624 16.0767C81.1014 16.0767 82.2535 16.755 82.8171 18.1133C83.1274 17.4976 83.6129 16.9883 84.213 16.6492C84.8547 16.2629 85.5918 16.0651 86.3405 16.0767C88.9489 16.0767 90.2529 17.5708 90.2529 20.561V27.4022H86.7295V21.2017C86.7295 20.4552 86.5921 19.906 86.3177 19.5547C86.0429 19.2044 85.6311 19.0282 85.0819 19.0282C84.4873 19.0282 84.0296 19.2344 83.7093 19.6461C83.389 20.0429 83.2288 20.7362 83.2288 21.7281V27.4022H79.7054V21.1789C79.7054 20.4319 79.5685 19.89 79.2937 19.5547C79.0354 19.2044 78.6303 19.0282 78.0823 19.0282C77.4716 19.0282 77.0061 19.2344 76.6858 19.6461C76.3655 20.0429 76.2053 20.7362 76.2053 21.7281V27.4022H72.7057V16.3743H72.7046ZM103.403 21.3164C103.403 21.7885 103.372 22.3 103.31 22.8492H95.1667C95.1977 23.5663 95.441 24.1144 95.8987 24.4967C96.3565 24.8775 96.9755 25.0686 97.7519 25.0686C98.8353 25.0686 99.5219 24.74 99.8111 24.0844H103.243C103.075 25.1678 102.48 26.044 101.458 26.7156C100.452 27.3712 99.216 27.6998 97.7519 27.6998C95.861 27.6998 94.3737 27.1883 93.2903 26.1664C92.2229 25.144 91.6887 23.7187 91.6887 21.8883C91.6887 20.6985 91.9326 19.6688 92.4208 18.7994C92.8924 17.931 93.6194 17.2283 94.5028 16.7861C95.4033 16.3139 96.4479 16.0767 97.6388 16.0767C98.7665 16.0767 99.7651 16.2978 100.635 16.7406C101.519 17.1834 102.198 17.8007 102.671 18.5938C103.159 19.3879 103.403 20.295 103.403 21.3164ZM99.9469 20.6758C99.932 19.9437 99.7264 19.3862 99.329 19.0055C98.9333 18.6248 98.3603 18.4336 97.6133 18.4336C96.8663 18.4336 96.2717 18.6392 95.8289 19.0515C95.4022 19.4483 95.1811 19.9891 95.165 20.6758H99.9469ZM104.947 16.3743H108.447V18.6852C108.63 17.8911 109.004 17.2815 109.568 16.8548C110.116 16.4236 110.793 16.1898 111.49 16.1914C111.856 16.1914 112.162 16.2225 112.405 16.2829V19.532C112.056 19.4898 111.705 19.4671 111.353 19.4632C110.392 19.4632 109.668 19.7752 109.179 20.4009C108.691 21.011 108.447 21.926 108.447 23.1468V27.4022H104.947V16.3743Z" fill="#5E636E"/>
</g>
<defs>
<clipPath id="clip0_1_43739">
<rect width="112" height="40" fill="white" transform="translate(0.5)"/>
</clipPath>
</defs>
</svg>
