<svg width="95" height="40" viewBox="0 0 95 40" fill="none" xmlns="http://www.w3.org/2000/svg">
<g clip-path="url(#clip0_1_43740)">
<path fill-rule="evenodd" clip-rule="evenodd" d="M12.8869 15.5473V18.808L20.6799 18.8045C20.4408 20.6029 19.8344 21.9196 18.9127 22.8413C17.7761 23.9779 16.002 25.2288 12.8869 25.2288C8.08424 25.2288 4.32807 21.3583 4.32807 16.5556C4.32807 11.753 8.08424 7.88249 12.8869 7.88249C15.4788 7.88249 17.3707 8.90123 18.7672 10.211L21.068 7.91021C19.1206 6.04945 16.5287 4.62183 12.8903 4.62183C6.31357 4.62183 0.783264 9.97888 0.783264 16.5556C0.783264 23.1324 6.31357 28.4895 12.8903 28.4895C16.4386 28.4895 19.1171 27.3252 21.2135 25.1422C23.3688 22.9869 24.0376 19.9618 24.0376 17.5155C24.0376 16.7878 23.9821 16.1156 23.8747 15.5473H12.8869ZM78.6234 28.0219V5.49874H75.3315V28.0219H78.6234ZM33.0572 28.493C37.3054 28.493 40.7671 25.2324 40.7671 20.8074C40.7671 16.3513 37.3054 13.1218 33.0572 13.1218C28.809 13.1218 25.3474 16.3513 25.3474 20.8074C25.3474 25.2324 28.809 28.493 33.0572 28.493ZM33.0572 16.1503C35.3858 16.1503 37.3921 18.0423 37.3921 20.8074C37.3921 23.5414 35.3858 25.4645 33.0572 25.4645C30.7287 25.4645 28.7224 23.5449 28.7224 20.8074C28.7224 18.0423 30.7287 16.1503 33.0572 16.1503ZM49.6899 28.493C53.9381 28.493 57.3998 25.2324 57.3998 20.8074C57.3998 16.3513 53.9381 13.1218 49.6899 13.1218C45.4417 13.1218 41.9801 16.3548 41.9801 20.8074C41.9801 25.2324 45.4417 28.493 49.6899 28.493ZM49.6899 16.1503C52.0185 16.1503 54.0248 18.0423 54.0248 20.8074C54.0248 23.5414 52.0185 25.4645 49.6899 25.4645C47.3614 25.4645 45.3551 23.5449 45.3551 20.8074C45.3551 18.0423 47.3614 16.1503 49.6899 16.1503ZM73.3395 13.5896V27.3842C73.3395 33.0601 69.9922 35.3782 66.0351 35.3782C62.3101 35.3782 60.0681 32.8868 59.2227 30.8493L62.1611 29.6261C62.6843 30.877 63.9664 32.3532 66.0316 32.3532C68.5646 32.3532 70.1343 30.7904 70.1343 27.8485V26.7432H70.0165C69.2611 27.6753 67.8057 28.4896 65.9692 28.4896C62.1264 28.4896 58.6059 25.1423 58.6059 20.8352C58.6059 16.4969 62.1264 13.1218 65.9692 13.1218C67.8023 13.1218 69.2576 13.9361 70.0165 14.8405H70.1343V13.5896H73.3395ZM70.3734 20.8352C70.3734 18.1289 68.5681 16.1503 66.2707 16.1503C63.9421 16.1503 61.9913 18.1289 61.9913 20.8352C61.9913 23.5137 63.9421 25.4646 66.2707 25.4646C68.5681 25.4646 70.3734 23.5137 70.3734 20.8352ZM91.4516 23.337L94.0712 25.0834C93.2257 26.3343 91.1882 28.4896 87.6677 28.4896C83.3017 28.4896 80.041 25.1146 80.041 20.804C80.041 16.2335 83.3294 13.1184 87.29 13.1184C91.2783 13.1184 93.2292 16.2924 93.8668 18.0077L94.2167 18.8809L83.9427 23.136C84.7293 24.678 85.9525 25.4646 87.6677 25.4646C89.3864 25.4646 90.5784 24.6191 91.4516 23.337ZM83.3883 20.5718L90.2561 17.7201C89.8784 16.7602 88.7419 16.0915 87.4043 16.0915C85.6891 16.0915 83.3017 17.6057 83.3883 20.5718Z" fill="#5E636E"/>
</g>
<defs>
<clipPath id="clip0_1_43740">
<rect width="94" height="40" fill="white" transform="translate(0.5)"/>
</clipPath>
</defs>
</svg>
