<svg width="113" height="30" viewBox="0 0 113 30" fill="none" xmlns="http://www.w3.org/2000/svg">
<path d="M30.0455 15.2415C30.6198 15.5898 31.183 15.9684 31.6559 16.4381C36.14 20.8914 40.6089 25.3601 45.0915 29.9123C35.268 30.0001 25.435 30.0001 15.4808 30.0001C18.4039 26.9269 21.4432 23.8487 24.4943 20.7823C26.3174 18.95 28.1591 17.1362 30.0455 15.2415Z" fill="#5E636E"/>
<path d="M112.084 18.2651C110.504 21.1464 107.704 22.2182 104.593 21.1515C103.923 20.9219 103.259 20.5251 102.736 20.0474C100.744 18.2272 100.391 13.7784 101.965 11.1459C103.31 8.89482 106.291 7.91581 109.127 8.82103C110.512 9.26306 111.55 10.0868 111.995 11.6094C112.084 11.832 112.084 12.0259 111.965 12.3106C110.995 12.4014 110.143 12.4014 109.268 12.4014C108.962 11.2592 108.339 10.5621 107.101 10.5313C105.765 10.498 104.893 11.161 104.362 12.2932C103.641 13.8304 103.625 15.445 104.037 17.0704C104.371 18.3884 105.122 19.2938 106.547 19.4718C108.006 19.6541 108.914 18.9709 109.333 17.5863C110.283 17.5863 111.183 17.5863 112.084 17.5863C112.084 17.7802 112.084 17.9742 112.084 18.2651Z" fill="#5E636E"/>
<path d="M44.9798 2.81278e-09C45.1224 0.0508753 45.1513 0.100278 45.1616 0.153306C45.1661 0.176421 45.1325 0.206973 44.9173 0.24941C34.9945 0.268364 25.2704 0.272054 15.5463 0.275744C15.4642 0.230091 15.3821 0.184437 15.3298 0.0693915C25.1926 -5.16402e-07 35.0256 -5.14429e-07 44.9798 2.81278e-09Z" fill="#5E636E"/>
<path d="M45.4446 0.279992C45.4545 0.226011 45.4644 0.172031 45.4169 0.0590258C45.3596 -3.85375e-09 45.4889 0 45.5535 0C45.5689 0.0357582 45.5196 0.0715166 45.4782 0.206762C45.4861 0.30625 45.4446 0.279992 45.4446 0.279992Z" fill="#5E636E"/>
<path d="M45.945 0.748291C50.6432 5.58738 55.3413 10.4265 59.9113 15.1335C55.4441 19.687 50.7802 24.4412 45.9481 29.1591C45.7264 28.8764 45.6261 28.6299 45.6259 28.3832C45.6176 19.5201 45.6149 10.6571 45.6322 1.79401C45.6328 1.44524 45.8361 1.09686 45.945 0.748291Z" fill="#5E636E"/>
<path d="M97.8703 14.3233C97.5944 14.4652 97.4059 14.5534 97.0421 14.7237C97.3961 14.8651 97.604 14.9443 97.8088 15.0307C98.9706 15.5207 99.6815 16.306 99.7329 17.6503C99.7874 19.075 99.1733 20.0755 97.9268 20.6319C97.2354 20.9405 96.4491 21.1553 95.6966 21.1852C93.7754 21.2617 91.849 21.2107 89.8545 21.2107C89.8545 17.0578 89.8545 12.9933 89.8545 8.66772C92.232 8.79528 94.6236 8.82125 96.987 9.09279C98.2013 9.2323 99.0247 10.1308 99.2337 11.431C99.4307 12.6567 99.0629 13.629 97.8703 14.3233ZM96.7251 16.6249C95.528 15.1102 93.9072 15.9531 92.4507 15.7032C92.4507 17.0286 92.4507 18.1975 92.4507 19.4108C93.2222 19.4108 93.9052 19.4351 94.586 19.4062C96.4853 19.3255 96.973 18.7473 96.7251 16.6249ZM92.4056 13.5396C93.1517 14.5512 94.1748 13.9134 95.0458 13.9017C95.8943 13.8902 96.555 13.3974 96.5784 12.355C96.6032 11.2512 95.9315 10.7899 95.0211 10.6678C94.1932 10.5568 93.3387 10.6443 92.4036 10.6443C92.4036 11.5936 92.4036 12.4418 92.4056 13.5396Z" fill="#5E636E"/>
<path d="M73.6076 11.1304C73.6076 10.3208 73.6076 9.63795 73.6076 8.86853C74.5307 8.86853 75.402 8.86853 76.3287 8.86853C76.3287 12.9368 76.3287 17.0048 76.3287 21.1458C75.4561 21.1458 74.5841 21.1458 73.6011 21.1458C73.6011 19.4055 73.6011 17.7034 73.6011 15.9406C71.7474 15.9406 70.003 15.9406 68.1642 15.9406C68.1642 17.6645 68.1642 19.3712 68.1642 21.1473C67.2402 21.1473 66.4079 21.1473 65.5232 21.1473C65.5232 17.0471 65.5232 12.9811 65.5232 8.84814C66.3407 8.84814 67.144 8.84814 68.0704 8.84814C68.0704 10.4479 68.0704 12.1022 68.0704 13.8454C69.9275 13.8454 71.6673 13.8454 73.6076 13.8454C73.6076 13.0173 73.6076 12.1372 73.6076 11.1304Z" fill="#5E636E"/>
<path d="M84.0417 16.3696C82.7571 15.9592 81.5459 15.6493 80.3855 15.2062C78.8895 14.635 78.1488 13.4884 78.2013 12.0581C78.253 10.6488 79.0694 9.37614 80.5797 9.0633C82.0558 8.75755 83.6418 8.65818 85.1341 8.84052C86.8244 9.04705 87.5855 10.2081 87.7308 12.1484C87.3052 12.1484 86.8881 12.1484 86.4711 12.1484C86.0469 12.1484 85.6228 12.1484 85.2356 12.1484C84.3994 10.4241 83.1221 9.83745 81.8568 10.6561C81.4582 10.914 81.0936 11.517 81.0744 11.9771C81.0587 12.3545 81.4958 12.9424 81.8759 13.109C83.0513 13.6243 84.298 13.9759 85.5124 14.4039C87.3811 15.0625 88.2062 16.0344 88.2322 17.5843C88.2581 19.1284 87.2418 20.6522 85.4531 21.0168C83.9007 21.3334 82.2115 21.3695 80.6456 21.1256C78.9144 20.856 78.0456 19.3888 78.0324 17.4726C78.8426 17.4726 79.653 17.4726 80.4637 17.4724C81.4058 19.4504 82.2852 20.0329 83.8349 19.4042C84.4531 19.1535 85.0934 18.4706 85.2842 17.8495C85.3859 17.5186 84.5502 16.8997 84.0417 16.3696Z" fill="#5E636E"/>
<path d="M45.9136 0.674888C45.8361 1.09683 45.6328 1.44521 45.6322 1.79399C45.6149 10.657 45.6176 19.5201 45.6259 28.3832C45.6261 28.6298 45.7264 28.8764 45.87 29.1915C45.8159 29.4121 45.6717 29.5642 45.4469 29.719C45.3644 19.9833 45.3625 10.2449 45.4026 0.39322C45.4446 0.279992 45.4861 0.30625 45.507 0.293457C45.646 0.387613 45.7641 0.494563 45.9136 0.674888Z" fill="#5E636E"/>
<path d="M15.5843 0.356155C25.2704 0.272057 34.9945 0.268367 44.8496 0.270724C40.2692 4.99913 35.5577 9.7215 30.644 14.4796C30.2853 14.5663 30.1287 14.6173 29.9721 14.6683C29.9721 14.6683 29.945 14.632 29.9576 14.5469C29.8915 14.4461 29.8128 14.4303 29.734 14.4145C29.734 14.4145 29.691 14.3814 29.7013 14.2923C29.6329 14.1875 29.5542 14.1717 29.4754 14.1559C29.4754 14.1559 29.4433 14.1271 29.4493 14.035C29.3211 13.866 29.1868 13.7892 29.0525 13.7123C24.5757 9.28707 20.099 4.86182 15.5843 0.356155Z" fill="#5E636E"/>
<path d="M14.5828 0.774257C14.6594 0.657686 14.7359 0.541114 14.8321 0.356201C14.9518 0.576274 15.1392 0.864549 15.1397 1.15312C15.1546 10.4931 15.152 19.8331 15.1477 29.1731C15.1476 29.3414 15.0959 29.5097 14.9558 29.708C14.7653 29.6243 14.6873 29.5106 14.6313 29.228C14.7164 28.6403 14.8337 28.2217 14.8342 27.8029C14.8449 19.2501 14.8462 10.6972 14.8312 2.14438C14.8304 1.68753 14.6693 1.23096 14.5828 0.774257Z" fill="#5E636E"/>
<path d="M30.0046 14.7235C30.1286 14.6174 30.2852 14.5664 30.5662 14.5132C30.5486 14.6807 30.4067 14.8505 30.1804 15.0182C30.1254 14.9247 30.1057 14.8455 30.0046 14.7235Z" fill="#5E636E"/>
<path d="M29.0747 13.7769C29.1867 13.7892 29.3211 13.866 29.4312 14.0234C29.3037 14.0164 29.2004 13.9289 29.0747 13.7769Z" fill="#5E636E"/>
<path d="M29.4948 14.1959C29.5541 14.1716 29.6328 14.1874 29.6843 14.271C29.5981 14.3204 29.5505 14.2861 29.4948 14.1959Z" fill="#5E636E"/>
<path d="M29.7535 14.4547C29.8128 14.4304 29.8915 14.4462 29.943 14.5298C29.8567 14.5791 29.8092 14.5449 29.7535 14.4547Z" fill="#5E636E"/>
<path d="M14.5017 0.804688C14.6693 1.23087 14.8304 1.68744 14.8312 2.14429C14.8462 10.6971 14.8449 19.25 14.8342 27.8028C14.8337 28.2216 14.7164 28.6402 14.6093 29.1607C9.83253 24.5991 5.09942 19.9363 0.373037 15.2668C0.302269 15.1968 0.315025 15.0424 0.309631 14.8307C4.59892 10.5208 8.86726 6.30741 13.136 2.0945C13.5628 1.67332 13.9923 1.25491 14.5017 0.804688Z" fill="#5E636E"/>
</svg>
