<svg width="85" height="30" viewBox="0 0 85 30" fill="none" xmlns="http://www.w3.org/2000/svg">
<path d="M23.1741 2.8488e-06C43.7521 5.74264e-06 64.2834 5.69761e-06 84.8324 5.69761e-06C84.8324 10.0258 84.8324 19.9921 84.8324 30C56.8631 30 28.9035 30 0.920288 30C0.920288 20.0183 0.920288 10.0384 0.920288 0C8.32632 0 15.7269 4.83158e-08 23.1741 2.8488e-06ZM56.6958 28.0301C59.7542 27.5072 62.8304 27.0697 65.8667 26.4402C69.7823 25.6283 73.5881 24.4278 77.1704 22.6103C79.078 21.6424 80.8716 20.5042 82.288 18.8597C84.3295 16.4893 84.3573 13.882 82.3675 11.47C81.376 10.2682 80.1498 9.34663 78.8282 8.54675C75.7447 6.68052 72.3823 5.49248 68.929 4.54478C61.7124 2.56427 54.3311 1.72771 46.875 1.47437C42.2727 1.31799 37.6732 1.42521 33.0805 1.80674C28.554 2.18277 24.0648 2.80112 19.6385 3.82539C15.6063 4.75849 11.6589 5.95351 7.99146 7.92455C6.20285 8.88582 4.53194 10.0126 3.24519 11.6226C1.45817 13.8585 1.45161 16.3254 3.22179 18.5799C4.19573 19.8204 5.42196 20.7697 6.75263 21.5881C9.90528 23.527 13.355 24.7507 16.9021 25.7144C24.4743 27.7717 32.2149 28.6024 40.0356 28.791C45.577 28.9247 51.1047 28.6886 56.6958 28.0301Z" fill="#5E636E"/>
<path d="M25.6015 19.6537C25.0899 19.6537 24.6248 19.6537 24.1855 19.6537C24.1855 16.1066 24.1855 12.5879 24.1855 9.0332C26.4748 9.0332 28.7937 9.0332 31.0681 9.0332C31.0681 10.288 31.0681 11.5385 31.0681 12.8961C31.2429 12.6634 31.373 12.4871 31.5065 12.3134C32.1311 11.5003 32.7707 10.6983 33.373 9.86908C33.5467 9.62995 33.614 9.31352 33.7621 8.95483C35.9371 8.95483 38.2551 8.95483 40.6399 8.95483C40.5233 9.13564 40.4394 9.27623 40.3454 9.40966C39.4953 10.6166 38.6489 11.8261 37.7871 13.0247C37.6284 13.2454 37.6088 13.4006 37.7618 13.6416C38.9181 15.4635 40.0572 17.2964 41.2017 19.1258C41.331 19.3327 41.4607 19.5393 41.5216 19.6364C38.9253 19.6364 36.1319 19.6364 33.4358 19.6364C33.2884 19.2782 33.198 18.9408 33.0233 18.6549C32.4007 17.6355 31.7494 16.6335 31.0697 15.563C31.0697 16.9523 31.0697 18.2694 31.0697 19.6537C29.2958 19.6537 27.472 19.6537 25.6015 19.6537Z" fill="#5E636E"/>
<path d="M75.6553 19.5227C75.652 19.6145 75.6341 19.7317 75.6079 19.7336C75.3913 19.7493 75.1731 19.7443 74.9554 19.7443C72.7336 19.7445 70.5119 19.7444 68.3921 19.7444C68.1883 19.0992 68.0115 18.5032 67.8022 17.9189C67.7727 17.8367 67.5848 17.7682 67.4693 17.7667C66.5518 17.755 65.6339 17.7499 64.7169 17.774C64.5838 17.7775 64.3896 17.9192 64.3357 18.045C64.1214 18.545 63.9514 19.0641 63.7431 19.6363C61.9105 19.6363 59.9383 19.6363 57.9968 19.6363C59.3125 16.0933 60.6327 12.538 61.9754 8.92236C64.9689 8.92236 68.1069 8.92236 71.2036 8.92236C71.3134 9.27957 71.3895 9.63636 71.5296 9.96596C72.8466 13.0644 74.1743 16.1582 75.5005 19.2527C75.5367 19.3372 75.591 19.4141 75.6553 19.5227ZM66.489 14.3752C66.3692 14.112 66.2495 13.8489 66.0918 13.5027C65.7946 14.1724 65.5379 14.7506 65.2665 15.362C65.845 15.362 66.3496 15.362 66.917 15.362C66.7688 15.0275 66.6394 14.7353 66.489 14.3752Z" fill="#5E636E"/>
<path d="M53.326 19.7529C50.0136 19.7529 46.7478 19.7529 43.5281 19.7529C43.5281 16.1247 43.5281 12.5275 43.5281 8.9248C47.6216 8.9248 51.7375 8.9248 55.885 8.9248C55.885 9.99237 55.885 11.0285 55.885 12.0906C54.0161 12.0906 52.1444 12.0906 50.2495 12.0906C50.2495 12.3748 50.2495 12.6415 50.2495 12.8853C51.7349 12.8853 53.2057 12.8853 54.6958 12.8853C54.6958 13.7792 54.6958 14.7193 54.6958 15.6225C53.2084 15.6225 51.7381 15.6225 50.2469 15.6225C50.2469 15.9183 50.2469 16.2095 50.2469 16.5162C52.1229 16.5162 54.007 16.5162 55.9181 16.5162C55.9181 17.5442 55.9181 18.6236 55.9181 19.7529C55.0717 19.7529 54.2222 19.7529 53.326 19.7529Z" fill="#5E636E"/>
<path d="M13.2329 12.3723C13.2329 11.2384 13.2329 10.1512 13.2329 9.03101C15.5165 9.03101 17.8374 9.03101 20.1437 9.03101C20.1437 12.5888 20.1437 16.15 20.1437 19.7304C17.8686 19.7304 15.5429 19.7304 13.233 19.7304C13.233 17.2847 13.233 14.8518 13.2329 12.3723Z" fill="#5E636E"/>
</svg>
