<svg width="32" height="32" viewBox="0 0 32 32" fill="none" xmlns="http://www.w3.org/2000/svg">
<path d="M0 12.8C0 8.31958 0 6.07937 0.871948 4.36808C1.63893 2.86278 2.86278 1.63893 4.36808 0.871948C6.07937 0 8.31958 0 12.8 0H19.2C23.6804 0 25.9206 0 27.6319 0.871948C29.1372 1.63893 30.3611 2.86278 31.1281 4.36808C32 6.07937 32 8.31958 32 12.8V19.2C32 23.6804 32 25.9206 31.1281 27.6319C30.3611 29.1372 29.1372 30.3611 27.6319 31.1281C25.9206 32 23.6804 32 19.2 32H12.8C8.31958 32 6.07937 32 4.36808 31.1281C2.86278 30.3611 1.63893 29.1372 0.871948 27.6319C0 25.9206 0 23.6804 0 19.2V12.8Z" fill="url(#paint0_linear_35_5948)" fill-opacity="0.1"/>
<path d="M12.3703 21.04L12.4503 21.792C12.1516 21.8453 11.8903 21.872 11.6663 21.872C11.165 21.872 10.685 21.536 10.2263 20.864C9.76765 20.2027 9.40498 19.424 9.13831 18.528C8.88231 17.632 8.72231 16.768 8.65831 15.936C8.12498 17.3227 7.61831 18.3307 7.13831 18.96C6.66898 19.5787 6.18365 19.888 5.68231 19.888C5.42631 19.888 5.22365 19.7867 5.07431 19.584C4.92498 19.3707 4.85031 19.0933 4.85031 18.752C4.85031 17.9627 5.21298 16.96 5.93831 15.744C6.67431 14.528 7.53298 13.5307 8.51431 12.752C8.53565 12.688 8.62631 12.2987 8.78631 11.584C8.95698 10.8693 9.05831 10.4747 9.09031 10.4L10.0183 10.32C10.0183 10.5013 9.97031 10.88 9.87431 11.456C11.3143 10.3573 12.4983 9.808 13.4263 9.808C13.8636 9.808 14.2103 9.93067 14.4663 10.176C14.7223 10.4107 14.8503 10.7307 14.8503 11.136C14.8503 12.1493 14.3383 13.1733 13.3143 14.208C12.2903 15.232 11.197 15.8347 10.0343 16.016C10.1196 17.5627 10.3863 18.7733 10.8343 19.648C11.293 20.5227 11.805 20.9867 12.3703 21.04ZM7.71431 15.696C8.00231 14.928 8.19965 14.3147 8.30631 13.856C7.71965 14.4 7.17565 15.1253 6.67431 16.032C6.18365 16.9387 5.93831 17.6107 5.93831 18.048C5.93831 18.272 6.02898 18.384 6.21031 18.384C6.53031 18.384 7.03165 17.488 7.71431 15.696ZM8.80231 15.472C9.93298 15.472 10.9463 15.0773 11.8423 14.288C12.7383 13.4987 13.1863 12.7147 13.1863 11.936C13.1863 11.648 13.1116 11.424 12.9623 11.264C12.8236 11.104 12.5996 11.024 12.2903 11.024C11.981 11.024 11.533 11.2 10.9463 11.552C10.3596 11.8933 9.93831 12.176 9.68231 12.4C9.35165 13.712 9.05831 14.736 8.80231 15.472ZM26.4266 9.808L27.1466 10.16C26.4319 11.5573 25.6906 13.3547 24.9226 15.552C25.4132 15.552 25.7492 15.5733 25.9306 15.616L25.8666 16.528C25.6426 16.6027 25.2052 16.64 24.5546 16.64C24.3306 17.2587 24.1972 17.76 24.1546 18.144C24.1119 18.528 24.0746 18.9013 24.0426 19.264C24.0212 19.6267 24.0052 19.872 23.9946 20H23.0986C23.0452 19.8187 23.0186 19.632 23.0186 19.44C23.0186 18.7787 23.1946 17.8453 23.5466 16.64C22.9066 16.64 21.9359 16.7147 20.6346 16.864C20.5812 17.0347 20.4479 17.3547 20.2346 17.824C20.0212 18.2827 19.8079 18.6827 19.5946 19.024C19.3919 19.3653 19.1146 19.7387 18.7626 20.144C18.4106 20.5493 18.0426 20.8907 17.6586 21.168C16.5599 21.9573 15.4932 22.352 14.4586 22.352C14.0319 22.352 13.6799 22.2187 13.4026 21.952C13.1252 21.6853 12.9866 21.3493 12.9866 20.944C12.9866 19.92 13.5732 18.992 14.7466 18.16C15.9306 17.3173 17.5679 16.6453 19.6586 16.144C20.4479 13.84 21.5572 12.1973 22.9866 11.216C21.4399 11.2373 20.1652 11.4987 19.1626 12C18.1599 12.5013 17.6586 13.1413 17.6586 13.92C17.6586 14.1653 17.6959 14.3787 17.7706 14.56C17.8452 14.7307 18.0212 15.0027 18.2986 15.376L17.7546 15.888C17.2852 15.5893 16.9279 15.2267 16.6826 14.8C16.4372 14.3733 16.3146 13.9627 16.3146 13.568C16.3146 12.9067 16.6666 12.2987 17.3706 11.744C18.0746 11.1787 18.9492 10.7467 19.9946 10.448C21.0399 10.1387 22.1012 9.984 23.1786 9.984C23.7226 9.984 24.0959 10.0267 24.2986 10.112C24.5119 10.1867 24.6186 10.336 24.6186 10.56C24.6186 10.7733 24.4639 10.976 24.1546 11.168C22.8212 12 21.7492 13.5787 20.9386 15.904C21.5679 15.7973 22.5439 15.68 23.8666 15.552C24.3786 14.0587 24.7892 12.9547 25.0986 12.24C25.4186 11.5147 25.8612 10.704 26.4266 9.808ZM15.7386 21.248C16.1332 21.248 16.5919 21.072 17.1146 20.72C17.6479 20.3787 18.0906 19.9307 18.4426 19.376C18.8052 18.8107 19.1146 18.0373 19.3706 17.056C17.9519 17.2907 16.8052 17.7067 15.9306 18.304C15.0666 18.8907 14.6346 19.5573 14.6346 20.304C14.6346 20.6027 14.7199 20.832 14.8906 20.992C15.0719 21.1627 15.3546 21.248 15.7386 21.248Z" fill="url(#paint1_linear_35_5948)"/>
<defs>
<linearGradient id="paint0_linear_35_5948" x1="16" y1="0" x2="16" y2="32" gradientUnits="userSpaceOnUse">
<stop stop-color="#6199FF"/>
<stop offset="1" stop-color="#045CFB"/>
</linearGradient>
<linearGradient id="paint1_linear_35_5948" x1="16" y1="6" x2="16" y2="26" gradientUnits="userSpaceOnUse">
<stop stop-color="white"/>
<stop offset="1" stop-color="white" stop-opacity="0.7"/>
</linearGradient>
</defs>
</svg>
