<svg width="32" height="32" viewBox="0 0 32 32" fill="none" xmlns="http://www.w3.org/2000/svg">
<path d="M0 12.8C0 8.31958 0 6.07937 0.871948 4.36808C1.63893 2.86278 2.86278 1.63893 4.36808 0.871948C6.07937 0 8.31958 0 12.8 0H19.2C23.6804 0 25.9206 0 27.6319 0.871948C29.1372 1.63893 30.3611 2.86278 31.1281 4.36808C32 6.07937 32 8.31958 32 12.8V19.2C32 23.6804 32 25.9206 31.1281 27.6319C30.3611 29.1372 29.1372 30.3611 27.6319 31.1281C25.9206 32 23.6804 32 19.2 32H12.8C8.31958 32 6.07937 32 4.36808 31.1281C2.86278 30.3611 1.63893 29.1372 0.871948 27.6319C0 25.9206 0 23.6804 0 19.2V12.8Z" fill="url(#paint0_linear_35_5948)" fill-opacity="0.1"/>
<path d="M20.3828 23.56L20.5028 24.688C20.0548 24.768 19.6628 24.808 19.3268 24.808C18.5748 24.808 17.8548 24.304 17.1668 23.296C16.4788 22.304 15.9348 21.136 15.5348 19.792C15.1508 18.448 14.9108 17.152 14.8148 15.904C14.0148 17.984 13.2548 19.496 12.5348 20.44C11.8308 21.368 11.1028 21.832 10.3508 21.832C9.96681 21.832 9.66281 21.68 9.43881 21.376C9.21481 21.056 9.10281 20.64 9.10281 20.128C9.10281 18.944 9.64681 17.44 10.7348 15.616C11.8388 13.792 13.1268 12.296 14.5988 11.128C14.6308 11.032 14.7668 10.448 15.0068 9.376C15.2628 8.304 15.4148 7.712 15.4628 7.6L16.8548 7.48C16.8548 7.752 16.7828 8.32 16.6388 9.184C18.7988 7.536 20.5748 6.712 21.9668 6.712C22.6228 6.712 23.1428 6.896 23.5268 7.264C23.9108 7.616 24.1028 8.096 24.1028 8.704C24.1028 10.224 23.3348 11.76 21.7988 13.312C20.2628 14.848 18.6228 15.752 16.8788 16.024C17.0068 18.344 17.4068 20.16 18.0788 21.472C18.7668 22.784 19.5348 23.48 20.3828 23.56ZM13.3988 15.544C13.8308 14.392 14.1268 13.472 14.2868 12.784C13.4068 13.6 12.5908 14.688 11.8388 16.048C11.1028 17.408 10.7348 18.416 10.7348 19.072C10.7348 19.408 10.8708 19.576 11.1428 19.576C11.6228 19.576 12.3748 18.232 13.3988 15.544ZM15.0308 15.208C16.7268 15.208 18.2468 14.616 19.5908 13.432C20.9348 12.248 21.6068 11.072 21.6068 9.904C21.6068 9.472 21.4948 9.136 21.2708 8.896C21.0628 8.656 20.7268 8.536 20.2628 8.536C19.7988 8.536 19.1268 8.8 18.2468 9.328C17.3668 9.84 16.7348 10.264 16.3508 10.6C15.8548 12.568 15.4148 14.104 15.0308 15.208Z" fill="url(#paint1_linear_35_5948)"/>
<defs>
<linearGradient id="paint0_linear_35_5948" x1="16" y1="0" x2="16" y2="32" gradientUnits="userSpaceOnUse">
<stop stop-color="#6199FF"/>
<stop offset="1" stop-color="#045CFB"/>
</linearGradient>
<linearGradient id="paint1_linear_35_5948" x1="16" y1="6" x2="16" y2="26" gradientUnits="userSpaceOnUse">
<stop stop-color="white"/>
<stop offset="1" stop-color="white" stop-opacity="0.7"/>
</linearGradient>
</defs>
</svg>
