<svg width="32" height="32" viewBox="0 0 32 32" fill="none" xmlns="http://www.w3.org/2000/svg">
<g clip-path="url(#clip0_35_27720)">
<path d="M0 12.8C0 8.31958 0 6.07937 0.871948 4.36808C1.63893 2.86278 2.86278 1.63893 4.36808 0.871948C6.07937 0 8.31958 0 12.8 0H19.2C23.6804 0 25.9206 0 27.6319 0.871948C29.1372 1.63893 30.3611 2.86278 31.1281 4.36808C32 6.07937 32 8.31958 32 12.8V19.2C32 23.6804 32 25.9206 31.1281 27.6319C30.3611 29.1372 29.1372 30.3611 27.6319 31.1281C25.9206 32 23.6804 32 19.2 32H12.8C8.31958 32 6.07937 32 4.36808 31.1281C2.86278 30.3611 1.63893 29.1372 0.871948 27.6319C0 25.9206 0 23.6804 0 19.2V12.8Z" fill="url(#paint0_linear_35_27720)" fill-opacity="0.1"/>
<path d="M20.3828 23.5599L20.5028 24.6879C20.0548 24.7679 19.6628 24.8079 19.3268 24.8079C18.5748 24.8079 17.8548 24.3039 17.1668 23.2959C16.4788 22.3039 15.9348 21.1359 15.5348 19.7919C15.1508 18.4479 14.9108 17.1519 14.8148 15.9039C14.0148 17.9839 13.2548 19.4959 12.5348 20.4399C11.8308 21.3679 11.1028 21.8319 10.3508 21.8319C9.96678 21.8319 9.66278 21.6799 9.43878 21.3759C9.21478 21.0559 9.10278 20.6399 9.10278 20.1279C9.10278 18.9439 9.64678 17.4399 10.7348 15.6159C11.8388 13.7919 13.1268 12.2959 14.5988 11.1279C14.6308 11.0319 14.7668 10.4479 15.0068 9.37591C15.2628 8.30391 15.4148 7.71191 15.4628 7.59991L16.8548 7.47991C16.8548 7.75191 16.7828 8.31991 16.6388 9.18391C18.7988 7.53591 20.5748 6.71191 21.9668 6.71191C22.6228 6.71191 23.1428 6.89591 23.5268 7.26391C23.9108 7.61591 24.1028 8.09591 24.1028 8.70391C24.1028 10.2239 23.3348 11.7599 21.7988 13.3119C20.2628 14.8479 18.6228 15.7519 16.8788 16.0239C17.0068 18.3439 17.4068 20.1599 18.0788 21.4719C18.7668 22.7839 19.5348 23.4799 20.3828 23.5599ZM13.3988 15.5439C13.8308 14.3919 14.1268 13.4719 14.2868 12.7839C13.4068 13.5999 12.5908 14.6879 11.8388 16.0479C11.1028 17.4079 10.7348 18.4159 10.7348 19.0719C10.7348 19.4079 10.8708 19.5759 11.1428 19.5759C11.6228 19.5759 12.3748 18.2319 13.3988 15.5439ZM15.0308 15.2079C16.7268 15.2079 18.2468 14.6159 19.5908 13.4319C20.9348 12.2479 21.6068 11.0719 21.6068 9.90391C21.6068 9.47191 21.4948 9.13591 21.2708 8.89591C21.0628 8.65591 20.7268 8.53591 20.2628 8.53591C19.7988 8.53591 19.1268 8.79991 18.2468 9.32791C17.3668 9.83991 16.7348 10.2639 16.3508 10.5999C15.8548 12.5679 15.4148 14.1039 15.0308 15.2079Z" fill="url(#paint1_linear_35_27720)"/>
</g>
<defs>
<linearGradient id="paint0_linear_35_27720" x1="16" y1="0" x2="16" y2="32" gradientUnits="userSpaceOnUse">
<stop stop-color="#6199FF"/>
<stop offset="1" stop-color="#045CFB"/>
</linearGradient>
<linearGradient id="paint1_linear_35_27720" x1="16" y1="5.99991" x2="16" y2="25.9999" gradientUnits="userSpaceOnUse">
<stop stop-color="white"/>
<stop offset="1" stop-color="white" stop-opacity="0.7"/>
</linearGradient>
<clipPath id="clip0_35_27720">
<rect width="32" height="32" fill="white"/>
</clipPath>
</defs>
</svg>
