<svg width="112" height="32" viewBox="0 0 112 32" fill="none" xmlns="http://www.w3.org/2000/svg">
<path fill-rule="evenodd" clip-rule="evenodd" d="M51.2462 19.5387C50.4691 19.7179 50.0671 19.4788 50.0671 18.9641C50.0671 18.2589 50.7963 17.9766 51.838 17.9766C52.2962 17.9766 52.7285 18.0162 52.7285 18.0162C52.7285 18.3181 52.0724 19.3482 51.2462 19.5387ZM52.0369 12.4781C49.5494 12.4781 47.7636 13.3928 47.7636 13.3928V16.0817C47.7636 16.0817 49.7353 14.9482 51.3349 14.9482C52.6111 14.9482 52.768 15.6368 52.7102 16.208C52.7102 16.208 52.3418 16.1106 51.2186 16.1106C48.5709 16.1106 47.2349 17.3139 47.2349 19.2431C47.2349 21.0732 48.7365 21.8379 50.002 21.8379C51.848 21.8379 52.66 20.597 52.909 20.0085C53.0822 19.6002 53.1142 19.3249 53.2691 19.3249C53.447 19.3249 53.3871 19.5224 53.3782 19.9287C53.3635 20.6406 53.3974 21.1786 53.5102 21.6321H55.9583V17.2285C55.9583 14.479 54.9855 12.4781 52.0369 12.4781Z" fill="#5E636E"/>
<path fill-rule="evenodd" clip-rule="evenodd" d="M68.15 17.1625C68.15 16.3581 68.8978 15.6256 70.2703 15.6256C71.7656 15.6256 72.9689 16.3458 73.2386 16.5094V13.3966C73.2386 13.3966 72.2883 12.4815 69.9525 12.4815C67.4903 12.4815 65.4398 13.9223 65.4398 17.0235C65.4398 20.1243 67.3008 21.844 69.9458 21.844C72.0123 21.844 73.2439 20.7085 73.2439 20.7085V17.7523C72.8542 17.9701 71.7686 18.7239 70.2853 18.7239C68.7149 18.7239 68.15 18.001 68.15 17.1625ZM35.4289 12.6854C35.4292 12.6874 35.5851 13.3563 35.3796 14.2311C35.2749 14.676 35.0824 15.0544 35.3148 15.0544C35.4751 15.0544 35.4754 14.9214 35.6839 14.4446C35.9888 13.7477 36.6315 12.4792 38.1334 12.4792C39.5611 12.4792 40.2338 13.3467 40.4566 14.159C40.6261 14.7761 40.4778 15.0544 40.6847 15.0544C40.8316 15.0544 40.8825 14.7342 41.0634 14.3292C41.3882 13.6037 42.0948 12.4792 43.5239 12.4792C45.6801 12.4792 46.5034 14.0363 46.5034 16.3721V21.6352H43.3001V16.7831C43.3001 15.9741 43.1694 15.1894 42.4319 15.1894C41.7486 15.1894 41.4301 16.4004 41.4301 17.1821V21.6372H38.168V16.7834C38.168 15.7483 38.022 15.1897 37.2945 15.1897C36.6647 15.1897 36.2973 16.3039 36.2973 17.1824V21.6355H33.0482V12.6854H35.4289ZM57.0246 12.6977C57.0259 12.6983 57.5789 13.0172 58.6522 13.0172C59.7275 13.0172 60.2735 12.6977 60.2735 12.6977V21.6375H57.0246V12.6977ZM83.8469 12.6977C83.8482 12.6983 84.4012 13.0172 85.4748 13.0172C86.5498 13.0172 87.0961 12.6977 87.0961 12.6977V21.6375H83.8469V12.6977ZM64.574 9.97583V21.6375H61.3248V9.97583H64.574ZM77.0999 9.97583C77.1002 9.97683 77.2345 10.312 77.2345 11.3088C77.2345 12.7808 76.9143 13.9788 76.763 14.4353C76.6829 14.677 76.5399 15.0501 76.7451 15.0567C76.8635 15.0604 76.9346 14.8822 77.0796 14.573C77.2239 14.2634 77.9394 12.4812 79.82 12.4812C82.4105 12.4812 82.7916 14.6025 82.7916 16.8998V21.6372H79.5424V16.7053C79.5424 15.6938 79.3303 15.1914 78.6523 15.1914C77.8337 15.1914 77.5444 16.4589 77.5444 17.1844V21.6372H74.2952V9.9755L77.0999 9.97583ZM90.5743 12.6854C90.5747 12.6874 90.7306 13.3563 90.5251 14.2311C90.4204 14.676 90.2279 15.0544 90.4603 15.0544C90.6206 15.0544 90.6209 14.9214 90.8294 14.4446C91.1339 13.7477 91.777 12.4792 93.2789 12.4792C94.7718 12.4792 95.364 13.3507 95.6021 14.159C95.7617 14.7006 95.6233 15.0544 95.8301 15.0544C95.9771 15.0544 96.028 14.7342 96.2089 14.3292C96.5331 13.6037 97.2403 12.4792 98.6693 12.4792C100.826 12.4792 101.649 14.0363 101.649 16.3721V21.6352H98.4456V16.7831C98.4456 15.9741 98.3149 15.1894 97.5774 15.1894C96.8941 15.1894 96.5753 16.4004 96.5753 17.1821V21.6372H93.3131V16.7834C93.3131 15.7483 93.1678 15.1897 92.44 15.1897C91.8102 15.1897 91.4428 16.3039 91.4428 17.1824V21.6355H88.1937V12.6854H90.5743ZM58.6392 9.88539C57.5413 9.88539 56.6506 10.4666 56.6506 11.1835C56.6506 11.9003 57.541 12.4815 58.6392 12.4815C59.7378 12.4815 60.6282 11.9003 60.6282 11.1835C60.6282 10.4666 59.7381 9.88539 58.6392 9.88539ZM85.4619 9.88539C84.3636 9.88539 83.4728 10.4666 83.4728 11.1835C83.4728 11.9003 84.3633 12.4815 85.4619 12.4815C86.5601 12.4815 87.4509 11.9003 87.4509 11.1835C87.4509 10.4666 86.5604 9.88539 85.4619 9.88539Z" fill="#5E636E"/>
<path fill-rule="evenodd" clip-rule="evenodd" d="M107.183 19.7089C106.439 19.7089 105.891 18.7643 105.891 17.4479C105.891 16.1695 106.453 15.1876 107.158 15.1876C108.061 15.1876 108.447 16.0165 108.447 17.4479C108.447 18.9372 108.092 19.7089 107.183 19.7089ZM108.075 12.4761C106.405 12.4761 105.64 13.7279 105.307 14.4412C105.087 14.9123 105.099 15.051 104.938 15.051C104.706 15.051 104.899 14.6726 105.003 14.2277C105.209 13.3516 105.053 12.6822 105.053 12.6822H102.673V24.1012H105.921V20.481C106.305 21.133 107.017 21.8296 108.115 21.8296C110.464 21.8296 111.646 19.8422 111.646 17.1573C111.646 14.1143 110.231 12.4761 108.076 12.4761" fill="#5E636E"/>
<path fill-rule="evenodd" clip-rule="evenodd" d="M21.5625 15.178C21.7809 15.1521 21.9901 15.1508 22.1826 15.178C22.294 14.9227 22.3129 14.4828 22.2128 14.0036C22.0642 13.2914 21.8627 12.8605 21.4464 12.9277C21.0301 12.9948 21.0149 13.5109 21.1638 14.2228C21.2476 14.6234 21.3966 14.9659 21.5625 15.178Z" fill="#5E636E"/>
<path fill-rule="evenodd" clip-rule="evenodd" d="M17.9911 15.7416C18.2887 15.8723 18.4719 15.9591 18.5434 15.8833C18.5896 15.8361 18.5756 15.746 18.5045 15.6299C18.3575 15.3902 18.0553 15.1468 17.7344 15.0102C17.0787 14.7279 16.2963 14.8216 15.6929 15.2552C15.4937 15.4012 15.3048 15.6033 15.3318 15.726C15.3404 15.7656 15.3703 15.7955 15.4402 15.8055C15.6044 15.8241 16.1783 15.5342 16.8396 15.4936C17.3061 15.465 17.6932 15.611 17.9911 15.7416Z" fill="#5E636E"/>
<path fill-rule="evenodd" clip-rule="evenodd" d="M17.3934 16.0835C17.0054 16.1447 16.7916 16.2727 16.6542 16.3914C16.5372 16.4938 16.4647 16.6072 16.4654 16.6866C16.4657 16.7245 16.482 16.7465 16.495 16.7575C16.5126 16.7731 16.5335 16.7817 16.5588 16.7817C16.6463 16.7817 16.8428 16.7029 16.8428 16.7029C17.3824 16.5097 17.7385 16.5334 18.0913 16.5733C18.2861 16.5952 18.3786 16.6072 18.4211 16.5403C18.4338 16.5211 18.4491 16.4795 18.4102 16.4163C18.3194 16.269 17.9274 16.02 17.3934 16.0835Z" fill="#5E636E"/>
<path fill-rule="evenodd" clip-rule="evenodd" d="M20.3573 17.3378C20.6207 17.4671 20.9106 17.4162 21.005 17.2244C21.0995 17.0325 20.9625 16.7718 20.6991 16.6425C20.4358 16.5132 20.1459 16.564 20.0514 16.7559C19.957 16.9481 20.094 17.2084 20.3573 17.3378Z" fill="#5E636E"/>
<path fill-rule="evenodd" clip-rule="evenodd" d="M22.0506 15.8586C21.8368 15.8549 21.6593 16.0897 21.6543 16.3833C21.6493 16.6768 21.8189 16.9172 22.0327 16.9209C22.2465 16.9246 22.424 16.6898 22.429 16.3962C22.434 16.103 22.2644 15.8622 22.0506 15.8586Z" fill="#5E636E"/>
<path fill-rule="evenodd" clip-rule="evenodd" d="M7.68011 21.1484C7.62691 21.0816 7.53946 21.1019 7.45468 21.1218C7.39549 21.1358 7.32866 21.1511 7.25517 21.1501C7.0979 21.1471 6.96457 21.0799 6.88976 20.9649C6.79234 20.8153 6.79799 20.5922 6.90539 20.3368L6.95559 20.2224C7.12716 19.8374 7.41411 19.1933 7.09192 18.5796C6.8492 18.1174 6.45352 17.8298 5.97772 17.7693C5.52087 17.7114 5.05071 17.8806 4.7508 18.2115C4.27765 18.7335 4.20351 19.444 4.29494 19.6951C4.32852 19.7869 4.38106 19.8125 4.41896 19.8178C4.49943 19.8284 4.61846 19.7699 4.69294 19.5694L4.71422 19.5042C4.74747 19.3982 4.80932 19.2007 4.91073 19.0424C5.03309 18.8515 5.22328 18.7202 5.44672 18.672C5.67415 18.6231 5.9069 18.6667 6.10174 18.7943C6.43324 19.0111 6.56092 19.4174 6.41928 19.8048C6.34613 20.0053 6.22709 20.3887 6.25336 20.7036C6.30656 21.341 6.69857 21.597 7.05069 21.6242C7.39316 21.6372 7.63256 21.4447 7.69308 21.3044C7.72865 21.2212 7.69873 21.1707 7.67911 21.1491" fill="#5E636E"/>
<path fill-rule="evenodd" clip-rule="evenodd" d="M10.9375 9.44127C12.0547 8.15051 13.4295 7.02833 14.6614 6.39825C14.704 6.3763 14.7492 6.42252 14.7263 6.46441C14.6285 6.64164 14.44 7.02101 14.3805 7.30862C14.3712 7.35351 14.4201 7.3871 14.458 7.36149C15.2244 6.83914 16.5573 6.27921 17.7267 6.20739C17.777 6.2044 17.8012 6.26857 17.7613 6.29949C17.5834 6.43582 17.3889 6.62468 17.247 6.81553C17.2227 6.84812 17.2456 6.89467 17.2862 6.895C18.1071 6.90098 19.2645 7.18826 20.019 7.61153C20.0699 7.64013 20.0336 7.73888 19.9764 7.72591C18.835 7.46423 16.9667 7.26573 15.0255 7.73921C13.2929 8.16182 11.9702 8.81451 11.0056 9.51608C10.9567 9.55166 10.8979 9.48682 10.9375 9.44127ZM16.5008 21.9472L16.5012 21.9479L16.5018 21.9492L16.5008 21.9472ZM21.1073 22.4908C21.1405 22.4769 21.1631 22.4393 21.1595 22.4017C21.1548 22.3555 21.1136 22.3219 21.0674 22.3266C21.0674 22.3266 18.6837 22.6794 16.4317 21.8551C16.677 21.0578 17.3291 21.3457 18.3149 21.4252C20.0918 21.5312 21.6845 21.2716 22.8615 20.9337C23.8813 20.6411 25.2209 20.0639 26.2613 19.2427C26.6121 20.0134 26.7361 20.8619 26.7361 20.8619C26.7361 20.8619 27.0078 20.8134 27.2349 20.953C27.4493 21.085 27.6066 21.3593 27.4992 22.0689C27.2804 23.3942 26.7172 24.4702 25.7702 25.46C25.1937 26.0805 24.4941 26.6198 23.6934 27.0121C23.2682 27.2356 22.8156 27.4288 22.3372 27.5847C18.7675 28.7508 15.1133 27.469 13.9356 24.7166C13.8415 24.5098 13.762 24.293 13.6995 24.0665C13.1978 22.2528 13.6237 20.0766 14.9557 18.7067C15.0378 18.6196 15.1216 18.5161 15.1216 18.3868C15.1216 18.2787 15.0528 18.1647 14.9933 18.0836C14.5271 17.4076 12.9128 16.2558 13.237 14.0268C13.4698 12.4254 14.8703 11.2976 16.176 11.3644L16.5068 11.3834C17.0727 11.417 17.5661 11.4895 18.032 11.5091C18.8117 11.543 19.5126 11.4296 20.3432 10.7377C20.6231 10.5043 20.8479 10.3018 21.2279 10.2376C21.2678 10.2306 21.3673 10.195 21.5658 10.2044C21.7686 10.2153 21.9614 10.2709 22.1347 10.3862C22.8003 10.8291 22.8948 11.9021 22.9293 12.6868C22.949 13.1347 23.0032 14.2186 23.0218 14.5298C23.064 15.2414 23.2512 15.3415 23.6296 15.4661C23.8424 15.5363 24.0399 15.5885 24.3312 15.6703C25.2123 15.9177 25.7346 16.1687 26.0641 16.4912C26.2606 16.6927 26.3521 16.9069 26.3803 17.111C26.4841 17.8691 25.7918 18.8054 23.9588 19.6563C21.9551 20.5863 19.5242 20.8217 17.8448 20.6345L17.2563 20.568C15.913 20.3871 15.1466 22.1231 15.9529 23.3128C16.4726 24.0795 17.888 24.5782 19.3041 24.5786C22.551 24.5789 25.0467 23.1924 25.975 21.9951L26.0492 21.8893C26.0951 21.8205 26.0572 21.7826 26.0003 21.8215C25.2419 22.3405 21.873 24.401 18.2694 23.7809C18.2694 23.7809 17.8315 23.7088 17.4318 23.5535C17.1143 23.4298 16.4493 23.1239 16.3685 22.442C19.2765 23.3414 21.1073 22.4908 21.1073 22.4908ZM5.13438 15.5799C4.12292 15.7764 3.23149 16.3496 2.68653 17.1416C2.36068 16.8699 1.75387 16.3439 1.64647 16.1388C0.776322 14.4863 2.59608 11.2737 3.86756 9.45922C7.00966 4.97548 11.9306 1.58167 14.2086 2.19746C14.579 2.3022 15.8056 3.72429 15.8056 3.72429C15.8056 3.72429 13.5283 4.98779 11.4166 6.74903C8.57108 8.93986 6.42214 12.1242 5.13438 15.5799ZM6.83377 23.1625C6.68082 23.1887 6.52455 23.199 6.36695 23.1951C4.8451 23.1542 3.20157 21.7843 3.03831 20.1597C2.85776 18.3639 3.77546 16.982 5.40004 16.6542C5.59422 16.6149 5.82896 16.5923 6.08199 16.6056C6.99237 16.6555 8.33367 17.3544 8.6399 19.3374C8.91122 21.0937 8.4803 22.8818 6.83377 23.1625ZM27.4473 19.9825C27.4344 19.9362 27.3492 19.626 27.2325 19.252C27.1158 18.8776 26.9951 18.6146 26.9951 18.6146C27.4633 17.914 27.4716 17.2872 27.4091 16.9325C27.3426 16.4926 27.1594 16.1178 26.7903 15.7301C26.4212 15.3428 25.6661 14.9458 24.6051 14.6479L24.0485 14.4932C24.0459 14.4703 24.0193 13.1809 23.9953 12.6273C23.9777 12.2269 23.9435 11.6022 23.7496 10.9871C23.5185 10.1541 23.1162 9.42531 22.6138 8.95915C24.0003 7.52209 24.8658 5.93873 24.8635 4.58081C24.8595 1.96903 21.6519 1.17869 17.6988 2.81558L16.8613 3.17102C16.8576 3.16736 15.3471 1.68542 15.3244 1.66547C10.8174 -2.26566 -3.27384 13.3973 1.23118 17.2014L2.21571 18.0357C1.96035 18.6974 1.85993 19.4555 1.94206 20.2704C2.04713 21.3174 2.58711 22.3209 3.46258 23.0963C4.29349 23.8325 5.38608 24.2986 6.44608 24.2976C8.19934 28.3378 12.2053 30.8163 16.9022 30.9559C21.9405 31.1055 26.1699 28.7415 27.9421 24.4948C28.0581 24.1969 28.5499 22.8539 28.5499 21.6682C28.5499 20.4769 27.8763 19.9825 27.4473 19.9825Z" fill="#5E636E"/>
</svg>
