<svg width="196" height="30" viewBox="0 0 196 30" fill="none" xmlns="http://www.w3.org/2000/svg">
<g clip-path="url(#clip0_194_6147)">
<path d="M39.0972 0.34082C42.8262 2.38319 46.4038 4.44208 50.0046 6.45953C51.3779 7.22893 52.0132 8.28926 51.9813 9.90335C51.9097 13.5301 51.9214 17.1598 51.9761 20.7872C52.0003 22.3894 51.3505 23.466 49.9799 24.2353C46.5255 26.1743 43.0927 28.152 39.6157 30.2275C38.9958 30.3408 38.4113 30.3408 37.6147 30.2452C34.7689 28.6524 32.1353 27.1552 29.3397 25.5659C33.9329 22.0425 38.3021 18.691 42.6713 15.3395C42.574 15.2046 42.4767 15.0697 42.3794 14.9348C38.6627 17.0616 34.938 19.1746 31.2313 21.3185C26.0527 24.3138 20.8875 27.3323 15.7166 30.3408C15.1321 30.3408 14.5477 30.3408 13.7621 30.2375C10.1171 28.1693 6.68819 26.1777 3.2224 24.2524C1.76579 23.4432 1.17113 22.2962 1.19734 20.6485C1.25238 17.1881 1.29188 13.7233 1.17324 10.2659C1.10573 8.29867 1.90952 7.11135 3.57256 6.18876C6.97348 4.30207 10.3088 2.29709 13.6711 0.34082C14.1446 0.34082 14.6181 0.34082 15.3333 0.402628C18.2729 1.99398 20.9707 3.52352 23.8605 5.16191C19.3261 8.6095 14.9853 11.9099 10.6444 15.2103C11.2059 15.2927 11.7072 15.2161 12.1172 14.9806C20.5959 10.1115 29.0643 5.22438 37.5347 0.340821C38.0082 0.34082 38.4817 0.34082 39.0972 0.34082Z" fill="#5E636E"/>
<path d="M69.5828 28.6418C68.4334 28.668 67.284 28.6942 65.983 28.5227C65.8314 20.2249 65.8543 12.1245 65.8063 4.02463C65.799 2.79235 66.0967 2.27327 67.4119 2.35928C68.4603 2.42785 69.526 2.23348 70.5841 2.15584C73.3211 6.3088 76.0575 10.4622 78.7959 14.6143C79.1622 15.1697 79.5383 15.7188 79.967 16.3557C82.8025 12.0142 85.5999 7.81632 88.2921 3.55194C89.0084 2.41731 89.7793 1.86263 91.1408 2.02233C92.1442 2.14003 93.1726 2.04543 94.3659 2.04543C94.3659 10.9015 94.3659 19.6779 94.1381 28.4339C93.2954 28.3738 92.6669 28.2334 92.0681 28.3139C90.4368 28.533 89.9619 27.9075 89.9968 26.27C90.1026 21.3059 90.0527 16.3379 90.0121 11.3718C90.0072 10.7713 89.6879 10.1733 89.5143 9.57417C86.8098 13.6857 84.1061 17.7978 81.4 21.9084C80.9379 22.6103 80.4656 23.3055 79.9148 24.1283C76.6984 19.2857 73.5462 14.5399 70.22 9.94666C70.004 15.5671 69.9737 21.0351 69.9058 26.5026C69.8969 27.2169 69.6952 27.9288 69.5828 28.6418Z" fill="#5E636E"/>
<path d="M166.742 19.8472C165.006 19.8472 163.441 19.8472 161.857 19.8472C162.233 23.0373 164.501 24.9748 167.794 25.2306C170.768 25.4616 173.475 24.7146 176.175 22.8886C176.175 24.2843 176.206 25.3428 176.155 26.3973C176.141 26.6894 175.96 27.0876 175.727 27.238C170.811 30.4116 161.858 30.3831 158.348 24.254C156.12 20.3632 156.75 14.2806 159.756 11.0345C162.733 7.81948 167.816 6.90182 171.78 8.86372C175.244 10.5781 177.463 14.8923 176.685 18.6684C176.588 19.1398 175.759 19.774 175.248 19.7944C172.473 19.9053 169.691 19.8472 166.742 19.8472ZM167.54 11.4643C164.115 11.5086 162.282 13.1431 161.779 16.6893C165.258 16.6893 168.721 16.6893 172.186 16.6893C172.139 13.6649 170.809 12.1028 167.54 11.4643Z" fill="#5E636E"/>
<path d="M114.234 19.8471C110.657 19.8516 107.249 19.8554 103.841 19.8637C103.73 19.864 103.62 19.9104 103.373 19.9664C103.567 22.0647 104.667 23.7128 106.524 24.3887C108.219 25.006 110.189 25.2634 111.985 25.1C113.834 24.9317 115.62 24.0633 117.441 23.4992C118.338 26.0102 117.826 27.2599 115.403 28.2132C111.767 29.6434 108.105 29.8254 104.473 28.2575C99.2936 26.022 97.0793 19.5173 99.5422 13.9206C101.818 8.7486 107.755 6.40271 112.92 8.63427C117.011 10.402 119.163 14.984 118.066 19.8471C116.874 19.8471 115.638 19.8471 114.234 19.8471ZM112.603 13.0786C110.834 11.3296 108.767 10.9795 106.516 11.9211C104.529 12.7525 103.452 14.5663 103.534 16.6953C106.968 16.6953 110.401 16.6953 114.206 16.6953C113.666 15.4144 113.216 14.3457 112.603 13.0786Z" fill="#5E636E"/>
<path d="M145.805 24.4309C148.658 25.7787 151.331 25.1604 154.147 23.9948C154.147 25.2819 154.224 26.3511 154.107 27.3986C154.064 27.7847 153.636 28.3064 153.262 28.4498C148.226 30.3812 141.718 29.3328 139.109 23.9618C136.383 18.3493 138.453 11.5314 143.653 8.97258C146.868 7.3902 150.12 7.52485 153.343 8.90247C153.725 9.06539 154.079 9.69316 154.131 10.1422C154.249 11.1464 154.168 12.1739 154.168 13.3714C151.4 12.2124 148.642 11.3474 145.94 12.8473C144.882 13.4344 143.899 14.5189 143.361 15.6125C141.852 18.6831 142.931 22.3566 145.805 24.4309Z" fill="#5E636E"/>
<path d="M127.509 18.1817C127.502 21.7362 127.502 25.1333 127.502 28.6311C125.867 28.6311 124.372 28.6311 122.798 28.6311C122.798 21.9497 122.798 15.3258 122.798 8.48192C124.022 8.48192 125.44 8.10736 126.405 8.60727C127.104 8.96961 127.203 10.4908 127.654 11.725C129.643 8.80915 132.299 7.37151 135.981 8.60562C135.981 10.0162 135.981 11.4614 135.981 12.9149C129.948 12.3556 128.09 13.4894 127.509 18.1817Z" fill="#5E636E"/>
<path d="M181.749 8.57744C183.145 8.57744 184.54 8.57744 186.061 8.57744C186.061 9.74504 186.061 10.86 186.061 12.2844C186.802 11.3804 187.223 10.5119 187.915 10.1002C189.231 9.31771 190.653 8.45191 192.119 8.24476C194.534 7.90353 195.738 9.75752 194.797 12.0285C194.667 12.3416 194.133 12.5786 193.745 12.6688C193.32 12.7672 192.847 12.6457 192.394 12.6342C188.889 12.5451 187.348 13.7195 186.356 17.3249C186.242 17.6266 186.249 17.7444 186.255 17.8622C186.253 21.2371 186.251 24.612 186.068 28.1606C184.455 28.3092 183.021 28.2842 181.588 28.2592C181.571 21.8981 181.554 15.5369 181.614 8.98651C181.736 8.73049 181.755 8.65724 181.749 8.57744Z" fill="#5E636E"/>
<path d="M70.4327 2.10592C69.5261 2.23334 68.4604 2.42771 67.4119 2.35914C66.0967 2.27312 65.799 2.79221 65.8063 4.02449C65.8544 12.1244 65.8314 20.2247 65.8305 28.4853C65.7111 28.3183 65.4903 27.9911 65.4896 27.6635C65.4711 19.3391 65.4752 11.0147 65.4793 2.6903C65.4794 2.53098 65.5262 2.37167 65.5758 2.05615C67.1463 2.05615 68.7138 2.05615 70.4327 2.10592Z" fill="#5E636E"/>
<path d="M89.5448 9.73047C89.688 10.1733 90.0072 10.7713 90.0122 11.3718C90.0528 16.3379 90.1026 21.3059 89.9969 26.27C89.962 27.9075 90.4368 28.533 92.0681 28.3139C92.6669 28.2334 93.2954 28.3738 94.0145 28.5072C92.6711 28.6009 91.2236 28.6009 89.5752 28.6009C89.5752 22.3675 89.5752 16.1271 89.5448 9.73047Z" fill="#5E636E"/>
<path d="M69.7341 28.6693C69.6953 27.9286 69.897 27.2167 69.9058 26.5024C69.9737 21.0349 70.0041 15.5668 70.1436 9.99658C70.2514 15.7806 70.2688 21.667 70.2552 27.5534C70.2543 27.9348 70.0141 28.3157 69.7341 28.6693Z" fill="#5E636E"/>
<path d="M181.562 28.3831C183.021 28.2842 184.455 28.3093 186.047 28.3199C184.65 28.3727 183.093 28.4399 181.562 28.3831Z" fill="#5E636E"/>
<path d="M186.316 17.7967C186.249 17.7443 186.243 17.6265 186.303 17.4463C186.373 17.4997 186.375 17.6155 186.316 17.7967Z" fill="#5E636E"/>
<path d="M181.671 8.58374C181.755 8.65719 181.736 8.73044 181.644 8.8295C181.597 8.86186 181.514 8.72734 181.514 8.72734C181.514 8.72734 181.592 8.5901 181.671 8.58374Z" fill="#5E636E"/>
</g>
<defs>
<clipPath id="clip0_194_6147">
<rect width="194.659" height="30" fill="white" transform="translate(0.37561)"/>
</clipPath>
</defs>
</svg>
