<svg width="133" height="20" viewBox="0 0 133 20" fill="none" xmlns="http://www.w3.org/2000/svg">
<g clip-path="url(#clip0_224_6642)">
<path d="M9.57668 2.71993C9.91827 1.89864 11.0817 1.89864 11.4233 2.71993L12.9105 6.29546C13.0545 6.6417 13.3801 6.87827 13.7539 6.90823L17.614 7.2177C18.5006 7.28878 18.8601 8.39529 18.1846 8.97396L15.2436 11.4932C14.9588 11.7372 14.8345 12.1199 14.9215 12.4847L15.82 16.2515C16.0264 17.1167 15.0851 17.8006 14.326 17.3369L11.0213 15.3184C10.7012 15.1229 10.2988 15.1229 9.97875 15.3184L6.67397 17.3369C5.91487 17.8006 4.97362 17.1167 5.18001 16.2515L6.07852 12.4847C6.16553 12.1199 6.04116 11.7372 5.75637 11.4932L2.81539 8.97396C2.13985 8.39529 2.49938 7.28878 3.38603 7.2177L7.24612 6.90823C7.61991 6.87827 7.94552 6.6417 8.08953 6.29546L9.57668 2.71993Z" fill="white" fill-opacity="0.32"/>
<g clip-path="url(#clip1_224_6642)">
<path d="M9.57668 2.71993C9.91827 1.89864 11.0817 1.89864 11.4233 2.71993L12.9105 6.29546C13.0545 6.6417 13.3801 6.87827 13.7539 6.90823L17.614 7.2177C18.5006 7.28878 18.8601 8.39529 18.1846 8.97396L15.2436 11.4932C14.9588 11.7372 14.8345 12.1199 14.9215 12.4847L15.82 16.2515C16.0264 17.1167 15.0851 17.8006 14.326 17.3369L11.0213 15.3184C10.7012 15.1229 10.2988 15.1229 9.97875 15.3184L6.67397 17.3369C5.91487 17.8006 4.97362 17.1167 5.18001 16.2515L6.07852 12.4847C6.16553 12.1199 6.04116 11.7372 5.75637 11.4932L2.81539 8.97396C2.13985 8.39529 2.49938 7.28878 3.38603 7.2177L7.24612 6.90823C7.61991 6.87827 7.94552 6.6417 8.08953 6.29546L9.57668 2.71993Z" fill="white"/>
</g>
</g>
<g clip-path="url(#clip2_224_6642)">
<path d="M37.5767 2.71993C37.9183 1.89864 39.0817 1.89864 39.4233 2.71993L40.9105 6.29546C41.0545 6.6417 41.3801 6.87827 41.7539 6.90823L45.614 7.2177C46.5006 7.28878 46.8601 8.39529 46.1846 8.97396L43.2436 11.4932C42.9588 11.7372 42.8345 12.1199 42.9215 12.4847L43.82 16.2515C44.0264 17.1167 43.0851 17.8006 42.326 17.3369L39.0213 15.3184C38.7012 15.1229 38.2988 15.1229 37.9787 15.3184L34.674 17.3369C33.9149 17.8006 32.9736 17.1167 33.18 16.2515L34.0785 12.4847C34.1655 12.1199 34.0412 11.7372 33.7564 11.4932L30.8154 8.97396C30.1399 8.39529 30.4994 7.28878 31.386 7.2177L35.2461 6.90823C35.6199 6.87827 35.9455 6.6417 36.0895 6.29546L37.5767 2.71993Z" fill="white" fill-opacity="0.32"/>
<g clip-path="url(#clip3_224_6642)">
<path d="M37.5767 2.71993C37.9183 1.89864 39.0817 1.89864 39.4233 2.71993L40.9105 6.29546C41.0545 6.6417 41.3801 6.87827 41.7539 6.90823L45.614 7.2177C46.5006 7.28878 46.8601 8.39529 46.1846 8.97396L43.2436 11.4932C42.9588 11.7372 42.8345 12.1199 42.9215 12.4847L43.82 16.2515C44.0264 17.1167 43.0851 17.8006 42.326 17.3369L39.0213 15.3184C38.7012 15.1229 38.2988 15.1229 37.9787 15.3184L34.674 17.3369C33.9149 17.8006 32.9736 17.1167 33.18 16.2515L34.0785 12.4847C34.1655 12.1199 34.0412 11.7372 33.7564 11.4932L30.8154 8.97396C30.1399 8.39529 30.4994 7.28878 31.386 7.2177L35.2461 6.90823C35.6199 6.87827 35.9455 6.6417 36.0895 6.29546L37.5767 2.71993Z" fill="white"/>
</g>
</g>
<g clip-path="url(#clip4_224_6642)">
<path d="M65.5767 2.71993C65.9183 1.89864 67.0817 1.89864 67.4233 2.71993L68.9105 6.29546C69.0545 6.6417 69.3801 6.87827 69.7539 6.90823L73.614 7.2177C74.5006 7.28878 74.8601 8.39529 74.1846 8.97396L71.2436 11.4932C70.9588 11.7372 70.8345 12.1199 70.9215 12.4847L71.82 16.2515C72.0264 17.1167 71.0851 17.8006 70.326 17.3369L67.0213 15.3184C66.7012 15.1229 66.2988 15.1229 65.9787 15.3184L62.674 17.3369C61.9149 17.8006 60.9736 17.1167 61.18 16.2515L62.0785 12.4847C62.1655 12.1199 62.0412 11.7372 61.7564 11.4932L58.8154 8.97396C58.1399 8.39529 58.4994 7.28878 59.386 7.2177L63.2461 6.90823C63.6199 6.87827 63.9455 6.6417 64.0895 6.29546L65.5767 2.71993Z" fill="white" fill-opacity="0.32"/>
<g clip-path="url(#clip5_224_6642)">
<path d="M65.5767 2.71993C65.9183 1.89864 67.0817 1.89864 67.4233 2.71993L68.9105 6.29546C69.0545 6.6417 69.3801 6.87827 69.7539 6.90823L73.614 7.2177C74.5006 7.28878 74.8601 8.39529 74.1846 8.97396L71.2436 11.4932C70.9588 11.7372 70.8345 12.1199 70.9215 12.4847L71.82 16.2515C72.0264 17.1167 71.0851 17.8006 70.326 17.3369L67.0213 15.3184C66.7012 15.1229 66.2988 15.1229 65.9787 15.3184L62.674 17.3369C61.9149 17.8006 60.9736 17.1167 61.18 16.2515L62.0785 12.4847C62.1655 12.1199 62.0412 11.7372 61.7564 11.4932L58.8154 8.97396C58.1399 8.39529 58.4994 7.28878 59.386 7.2177L63.2461 6.90823C63.6199 6.87827 63.9455 6.6417 64.0895 6.29546L65.5767 2.71993Z" fill="white"/>
</g>
</g>
<g clip-path="url(#clip6_224_6642)">
<path d="M93.5767 2.71993C93.9183 1.89864 95.0817 1.89864 95.4233 2.71993L96.9105 6.29546C97.0545 6.6417 97.3801 6.87827 97.7539 6.90823L101.614 7.2177C102.501 7.28878 102.86 8.39529 102.185 8.97396L99.2436 11.4932C98.9588 11.7372 98.8345 12.1199 98.9215 12.4847L99.82 16.2515C100.026 17.1167 99.0851 17.8006 98.326 17.3369L95.0213 15.3184C94.7012 15.1229 94.2988 15.1229 93.9787 15.3184L90.674 17.3369C89.9149 17.8006 88.9736 17.1167 89.18 16.2515L90.0785 12.4847C90.1655 12.1199 90.0412 11.7372 89.7564 11.4932L86.8154 8.97396C86.1399 8.39529 86.4994 7.28878 87.386 7.2177L91.2461 6.90823C91.6199 6.87827 91.9455 6.6417 92.0895 6.29546L93.5767 2.71993Z" fill="white" fill-opacity="0.32"/>
<g clip-path="url(#clip7_224_6642)">
<path d="M93.5767 2.71993C93.9183 1.89864 95.0817 1.89864 95.4233 2.71993L96.9105 6.29546C97.0545 6.6417 97.3801 6.87827 97.7539 6.90823L101.614 7.2177C102.501 7.28878 102.86 8.39529 102.185 8.97396L99.2436 11.4932C98.9588 11.7372 98.8345 12.1199 98.9215 12.4847L99.82 16.2515C100.026 17.1167 99.0851 17.8006 98.326 17.3369L95.0213 15.3184C94.7012 15.1229 94.2988 15.1229 93.9787 15.3184L90.674 17.3369C89.9149 17.8006 88.9736 17.1167 89.18 16.2515L90.0785 12.4847C90.1655 12.1199 90.0412 11.7372 89.7564 11.4932L86.8154 8.97396C86.1399 8.39529 86.4994 7.28878 87.386 7.2177L91.2461 6.90823C91.6199 6.87827 91.9455 6.6417 92.0895 6.29546L93.5767 2.71993Z" fill="white"/>
</g>
</g>
<g clip-path="url(#clip8_224_6642)">
<path d="M121.577 2.71993C121.918 1.89864 123.082 1.89864 123.423 2.71993L124.91 6.29546C125.054 6.6417 125.38 6.87827 125.754 6.90823L129.614 7.2177C130.501 7.28878 130.86 8.39529 130.185 8.97396L127.244 11.4932C126.959 11.7372 126.834 12.1199 126.921 12.4847L127.82 16.2515C128.026 17.1167 127.085 17.8006 126.326 17.3369L123.021 15.3184C122.701 15.1229 122.299 15.1229 121.979 15.3184L118.674 17.3369C117.915 17.8006 116.974 17.1167 117.18 16.2515L118.079 12.4847C118.166 12.1199 118.041 11.7372 117.756 11.4932L114.815 8.97396C114.14 8.39529 114.499 7.28878 115.386 7.2177L119.246 6.90823C119.62 6.87827 119.946 6.6417 120.09 6.29546L121.577 2.71993Z" fill="white" fill-opacity="0.32"/>
<g clip-path="url(#clip9_224_6642)">
<path d="M121.577 2.71993C121.918 1.89864 123.082 1.89864 123.423 2.71993L124.91 6.29546C125.054 6.6417 125.38 6.87827 125.754 6.90823L129.614 7.2177C130.501 7.28878 130.86 8.39529 130.185 8.97396L127.244 11.4932C126.959 11.7372 126.834 12.1199 126.921 12.4847L127.82 16.2515C128.026 17.1167 127.085 17.8006 126.326 17.3369L123.021 15.3184C122.701 15.1229 122.299 15.1229 121.979 15.3184L118.674 17.3369C117.915 17.8006 116.974 17.1167 117.18 16.2515L118.079 12.4847C118.166 12.1199 118.041 11.7372 117.756 11.4932L114.815 8.97396C114.14 8.39529 114.499 7.28878 115.386 7.2177L119.246 6.90823C119.62 6.87827 119.946 6.6417 120.09 6.29546L121.577 2.71993Z" fill="white"/>
</g>
</g>
<defs>
<clipPath id="clip0_224_6642">
<rect width="20" height="20" fill="white" transform="translate(0.5)"/>
</clipPath>
<clipPath id="clip1_224_6642">
<rect width="20" height="20" fill="white" transform="translate(0.5)"/>
</clipPath>
<clipPath id="clip2_224_6642">
<rect width="20" height="20" fill="white" transform="translate(28.5)"/>
</clipPath>
<clipPath id="clip3_224_6642">
<rect width="20" height="20" fill="white" transform="translate(28.5)"/>
</clipPath>
<clipPath id="clip4_224_6642">
<rect width="20" height="20" fill="white" transform="translate(56.5)"/>
</clipPath>
<clipPath id="clip5_224_6642">
<rect width="20" height="20" fill="white" transform="translate(56.5)"/>
</clipPath>
<clipPath id="clip6_224_6642">
<rect width="20" height="20" fill="white" transform="translate(84.5)"/>
</clipPath>
<clipPath id="clip7_224_6642">
<rect width="20" height="20" fill="white" transform="translate(84.5)"/>
</clipPath>
<clipPath id="clip8_224_6642">
<rect width="20" height="20" fill="white" transform="translate(112.5)"/>
</clipPath>
<clipPath id="clip9_224_6642">
<rect width="20" height="20" fill="white" transform="translate(112.5)"/>
</clipPath>
</defs>
</svg>
