<svg width="198" height="30" viewBox="0 0 198 30" fill="none" xmlns="http://www.w3.org/2000/svg">
<path d="M147.315 29.4719C145.099 29.4751 142.936 29.4751 140.74 29.4751C140.74 19.8065 140.74 10.2063 140.74 0.554974C140.906 0.542233 141.073 0.518394 141.239 0.51829C145.905 0.515378 150.57 0.495098 155.235 0.524597C156.884 0.53502 158.543 0.564171 160.157 0.99892C160.975 1.2195 161.769 1.50181 162.478 1.97743C163.482 2.65137 164.194 3.56183 164.595 4.70351C165.19 6.39952 165.267 8.143 164.978 9.90031C164.654 11.8671 163.517 13.2004 161.681 13.9478C161.363 14.077 161.038 14.1865 160.613 14.3432C160.861 14.4346 161.027 14.5004 161.195 14.5567C162.187 14.8877 163.102 15.349 163.867 16.0781C164.792 16.9587 165.291 18.069 165.493 19.297C165.748 20.8503 165.769 22.4164 165.446 23.9694C164.994 26.1373 163.735 27.655 161.708 28.53C160.543 29.0328 159.315 29.2944 158.052 29.3734C154.785 29.5779 151.514 29.4282 148.244 29.4711C147.952 29.475 147.659 29.4697 147.315 29.4719ZM156.938 18.5692C156.664 18.1148 156.255 17.8458 155.744 17.7461C155.358 17.6708 154.965 17.5894 154.574 17.5856C152.818 17.5685 151.061 17.5772 149.304 17.5804C149.174 17.5807 149.044 17.6117 148.918 17.6279C148.918 19.3681 148.918 21.0655 148.918 22.7884C149.065 22.8017 149.181 22.8211 149.298 22.8212C151.089 22.8232 152.88 22.8294 154.671 22.8163C154.976 22.8141 155.287 22.7525 155.584 22.6741C156.423 22.4524 156.953 21.9055 157.151 21.0616C157.344 20.2394 157.321 19.4255 156.938 18.5692ZM156.793 8.70299C156.464 7.71011 155.861 7.24876 154.821 7.19681C154.718 7.19166 154.614 7.19454 154.511 7.19453C152.841 7.19443 151.171 7.19445 149.501 7.19445C149.317 7.19445 149.132 7.19446 148.96 7.19446C148.844 7.76539 148.86 11.429 148.968 11.8092C149 11.8203 149.032 11.8411 149.063 11.8411C150.991 11.8453 152.92 11.8787 154.847 11.8382C155.923 11.8156 156.766 11.0054 156.842 10.0236C156.874 9.61544 156.826 9.20114 156.793 8.70299Z" fill="#5E636E"/>
<path d="M30.1567 22.9376C29.8745 21.5943 29.7676 20.2737 29.7372 18.9505C29.6885 16.832 29.6328 14.7114 29.6766 12.5936C29.7145 10.758 29.756 8.91325 30.15 7.10452C30.427 5.83266 30.8395 4.6152 31.6211 3.55219C32.6889 2.0999 34.157 1.2606 35.8615 0.777756C37.0919 0.42923 38.3456 0.225761 39.6205 0.159448C40.9085 0.0924538 42.1991 -0.0233909 43.4859 0.00415927C45.719 0.0519702 47.9614 0.0652542 50.1551 0.594655C51.1982 0.846384 52.2066 1.18428 53.1265 1.74867C54.6149 2.66179 55.5839 3.9844 56.1483 5.61853C56.5952 6.91258 56.7824 8.25232 56.8873 9.61394C57.0793 12.1077 57.0931 14.6053 57.0385 17.1008C56.9956 19.0574 56.9715 21.0237 56.5467 22.9519C56.3347 23.9141 56.03 24.8386 55.5506 25.7086C54.7326 27.1934 53.5086 28.1941 51.9609 28.8319C50.6434 29.3749 49.2591 29.631 47.8521 29.7836C45.6216 30.0256 43.3816 30.0379 41.1458 29.9502C39.1706 29.8727 37.1986 29.6993 35.304 29.0489C33.8143 28.5375 32.5502 27.715 31.6114 26.4344C30.9603 25.5463 30.5681 24.5379 30.2846 23.4827C30.2399 23.3166 30.2049 23.1479 30.1567 22.9376ZM47.2621 7.64701C46.8427 7.45395 46.4383 7.20888 45.9997 7.08215C45.5426 6.95006 45.0543 6.9125 44.5764 6.86801C43.3026 6.74941 42.0284 6.76562 40.7757 7.04142C39.5898 7.30252 38.8085 8.02991 38.4072 9.1921C38.0933 10.1009 37.9912 11.0424 37.9552 11.9827C37.8954 13.5499 37.8894 15.1209 37.9197 16.6891C37.9396 17.7185 37.9971 18.7561 38.1551 19.7718C38.4417 21.6148 39.2571 22.8324 41.4495 23.0768C42.6379 23.2094 43.8257 23.2097 45.0081 23.1083C45.5974 23.0578 46.2002 22.8932 46.7451 22.6594C47.6448 22.2732 48.1087 21.4858 48.378 20.5728C48.688 19.5221 48.7494 18.4387 48.7665 17.356C48.7914 15.7878 48.7957 14.2185 48.7635 12.6506C48.7466 11.8279 48.6783 11.0002 48.5517 10.1874C48.4043 9.24074 48.0942 8.34457 47.2621 7.64701Z" fill="#5E636E"/>
<path d="M67.4733 29.4213C66.5837 29.2362 65.764 28.9848 64.9974 28.5738C63.3493 27.6902 62.3997 26.2938 62.0583 24.485C61.9186 23.7449 61.8774 22.9848 61.8168 22.2318C61.7714 21.6668 61.7632 21.0986 61.7456 20.5316C61.7403 20.3634 61.7594 20.1944 61.7688 19.9938C64.3625 19.9938 66.9238 19.9938 69.5261 19.9938C69.5422 20.1222 69.5608 20.2524 69.5744 20.3831C69.6101 20.7246 69.6315 21.068 69.6801 21.4075C69.8371 22.5034 70.5292 23.1178 71.5563 23.3488C72.1554 23.4836 72.7798 23.5366 73.3954 23.56C74.5646 23.6046 75.7388 23.6383 76.8908 23.3614C78.3849 23.0022 78.8404 21.9326 78.7697 20.5722C78.7591 20.3679 78.7106 20.1635 78.6612 19.9637C78.4463 19.0952 77.8179 18.6464 77.0135 18.4188C76.5858 18.2978 76.1382 18.2194 75.6948 18.1867C74.4256 18.0929 73.1526 18.0503 71.8836 17.954C70.3245 17.8356 68.7629 17.7236 67.2366 17.3453C66.1175 17.0679 65.0978 16.5815 64.18 15.8884C63.1423 15.1047 62.5912 14.0063 62.2398 12.7913C61.838 11.4025 61.7653 9.97737 61.8249 8.54379C61.8635 7.61554 61.9848 6.69855 62.2037 5.79006C62.7044 3.7117 63.9348 2.23743 65.8052 1.24488C66.7048 0.767493 67.667 0.533817 68.6579 0.388758C70.1744 0.166752 71.6989 0.0378569 73.2336 0.0535286C74.5416 0.0668884 75.8516 0.036183 77.1571 0.0995361C78.5985 0.169484 80.0369 0.311123 81.4451 0.664579C83.7682 1.24767 85.2232 2.71758 85.8166 5.01505C86.0128 5.77491 86.0831 6.57167 86.1604 7.35654C86.2243 8.00551 86.2152 8.66178 86.2345 9.31493C86.2369 9.39831 86.2153 9.4824 86.1999 9.60474C83.6445 9.60474 81.1 9.60474 78.5183 9.60474C78.482 9.38033 78.4223 9.14912 78.4103 8.91546C78.3233 7.22058 77.4964 6.66483 76.1979 6.44034C74.735 6.18742 73.2508 6.19525 71.7824 6.4786C71.5485 6.52373 71.3182 6.61076 71.0998 6.70876C70.2924 7.07115 69.9077 7.7171 69.8872 8.58878C69.8745 9.12318 69.8792 9.65287 70.0947 10.1631C70.3674 10.8085 70.8724 11.1686 71.5179 11.3292C71.9653 11.4406 72.4301 11.5065 72.8908 11.5364C75.3433 11.6956 77.802 11.7878 80.2324 12.1858C80.9103 12.2969 81.5979 12.4162 82.2448 12.6377C84.4429 13.3905 85.9271 14.863 86.575 17.1249C86.8371 18.04 86.9338 18.9791 86.9625 19.9275C86.9989 21.1335 86.9858 22.3369 86.7735 23.5294C86.594 24.5374 86.2964 25.5024 85.7359 26.373C85.2509 27.1263 84.6101 27.7159 83.859 28.1931C82.7232 28.9148 81.4912 29.3895 80.1562 29.5561C79.0313 29.6964 77.9023 29.834 76.7712 29.8858C75.2583 29.9552 73.7397 29.9971 72.227 29.9465C70.6482 29.8937 69.071 29.7404 67.4733 29.4213Z" fill="#5E636E"/>
<path d="M92.343 6.79834C92.343 4.69611 92.343 2.64564 92.343 0.527528C95.0762 0.501345 97.7665 0.51992 100.507 0.515422C100.568 1.70582 100.528 2.85519 100.535 4.00324C100.542 5.17605 100.537 6.34893 100.537 7.52177C100.537 8.67428 100.537 9.82679 100.537 10.9672C100.962 11.0785 109.321 11.1006 109.967 10.9934C109.967 7.53051 109.967 4.05694 109.967 0.546832C112.702 0.546832 115.378 0.546832 118.052 0.546832C118.171 0.912185 118.225 28.3675 118.102 29.4619C115.419 29.487 112.727 29.467 109.977 29.4722C109.977 25.7375 109.977 22.0553 109.977 18.3385C106.823 18.3385 103.727 18.3385 100.557 18.3385C100.512 19.065 100.543 19.7993 100.538 20.5316C100.532 21.2732 100.537 22.0149 100.537 22.7566C100.537 23.481 100.537 24.2054 100.537 24.9298C100.537 25.6714 100.537 26.4131 100.537 27.1547C100.537 27.8952 100.537 28.6356 100.537 29.3648C100.145 29.4991 93.4521 29.5493 92.4263 29.436C92.4151 29.4245 92.4018 29.4131 92.3915 29.3995C92.3816 29.3864 92.3678 29.3709 92.3678 29.3564C92.3588 21.8543 92.3509 14.3522 92.343 6.79834Z" fill="#5E636E"/>
<path d="M191.709 10.9437C193.579 17.1243 195.438 23.265 197.31 29.4488C194.456 29.4488 191.669 29.4488 188.802 29.4488C188.287 27.691 187.766 25.9156 187.241 24.125C184.083 24.125 180.95 24.125 177.794 24.125C177.276 25.9058 176.763 27.6694 176.245 29.4485C173.425 29.4485 170.64 29.4485 167.802 29.4485C167.82 29.3008 167.816 29.1685 167.852 29.0483C169.233 24.4843 170.618 19.9218 172 15.3582C173.092 11.7501 174.18 8.14092 175.271 4.53232C175.629 3.34594 175.987 2.15946 176.349 0.974102C176.394 0.828342 176.46 0.68922 176.529 0.515761C180.537 0.518594 184.531 0.510376 188.551 0.521058C189.612 4.02287 190.655 7.46332 191.709 10.9437ZM182.06 9.301C181.249 12.0532 180.453 14.8095 179.669 17.5746C180.269 17.6915 184.96 17.6707 185.373 17.5488C184.442 14.3292 183.511 11.1093 182.57 7.85223C182.483 7.93257 182.444 7.9511 182.436 7.97871C182.315 8.39179 182.198 8.80607 182.06 9.301Z" fill="#5E636E"/>
<path d="M26.9362 3.90049C26.9362 5.20961 26.9362 6.46698 26.9362 7.79255C26.2067 7.84013 25.5063 7.80956 24.8078 7.81492C24.0835 7.82048 23.3591 7.81616 22.6348 7.81616C21.9277 7.81616 21.2206 7.81616 20.5135 7.81616C19.8113 7.81616 19.1092 7.81616 18.347 7.81616C18.347 15.0546 18.347 22.2357 18.347 29.4485C15.4327 29.4485 12.5791 29.4485 9.66399 29.4485C9.66399 22.2539 9.66399 15.0732 9.66399 7.83268C6.76745 7.83268 3.93135 7.83268 1.11753 7.83268C0.966859 7.41539 0.912315 1.83804 1.02634 0.669471C1.03717 0.656048 1.04667 0.641188 1.05921 0.629613C1.07118 0.618552 1.08629 0.602903 1.10004 0.602884C9.54941 0.591615 17.9988 0.581391 26.4482 0.572267C26.5846 0.572118 26.7211 0.585522 26.9336 0.596545C26.9344 1.15381 26.9356 1.69932 26.9361 2.24484C26.9365 2.77947 26.9362 3.3141 26.9362 3.90049Z" fill="#5E636E"/>
<path d="M133.464 15.5954C133.464 20.2317 133.464 24.8162 133.464 29.4384C130.726 29.4384 128.031 29.4384 125.34 29.4384C125.236 29.0567 125.206 1.19837 125.312 0.548828C127.996 0.548828 130.688 0.548828 133.359 0.548828C133.392 0.57545 133.408 0.584236 133.418 0.597596C133.428 0.611098 133.437 0.629126 133.437 0.645183C133.446 5.61132 133.455 10.5775 133.464 15.5954Z" fill="#5E636E"/>
</svg>
