<svg width="103" height="30" viewBox="0 0 103 30" fill="none" xmlns="http://www.w3.org/2000/svg">
<g clip-path="url(#clip0_194_6120)">
<path d="M54.0145 7.38734C55.0673 6.68797 56.2103 6.38093 57.4313 6.33415C58.4023 6.29695 59.365 6.3589 60.296 6.66062C62.3246 7.31804 63.6014 8.69727 64.1334 10.7513C64.6828 12.8729 64.6193 14.9646 63.6345 16.9583C62.7549 18.7393 61.2659 19.7208 59.322 19.9945C58.0723 20.1704 56.8242 20.1731 55.5929 19.7827C53.8161 19.2193 52.5654 18.0946 51.9372 16.3472C51.1049 14.0324 51.1283 11.7201 52.193 9.4716C52.5936 8.62555 53.1853 7.91508 54.0145 7.38734ZM54.4714 15.1842C54.6608 15.5799 54.8016 16.0092 55.0482 16.3652C55.8997 17.5946 57.0908 18.0884 58.5648 17.8283C59.8574 17.6002 60.7084 16.8041 61.2055 15.6212C61.7076 14.4264 61.7337 13.1734 61.5329 11.918C61.2309 10.0291 59.9576 8.48268 57.747 8.57044C56.5655 8.61735 55.6471 9.09699 55.0318 10.0536C54.0183 11.6293 54.0191 13.358 54.4714 15.1842Z" fill="#5E636E"/>
<path d="M94.8756 16.3331C94.8757 16.6663 94.8949 16.9596 94.8708 17.2492C94.8431 17.582 94.9739 17.6747 95.2974 17.6727C97.2417 17.6604 99.1861 17.6665 101.13 17.6671C101.565 17.6672 101.96 17.7615 102.205 18.1641C102.731 19.0307 102.15 19.9083 101.029 19.9135C98.8762 19.9236 96.7235 19.9166 94.5708 19.9167C94.3347 19.9168 94.0985 19.9214 93.8625 19.9159C92.4801 19.8839 92.0716 19.3546 92.0491 18.096C92.0211 16.5271 92.0423 14.9573 92.0423 13.3879C92.0422 11.763 92.0372 10.138 92.0464 8.51311C92.0483 8.18355 92.082 7.85039 92.1398 7.52578C92.2317 7.00887 92.7465 6.5898 93.3124 6.58802C95.9373 6.57977 98.5622 6.5789 101.187 6.58833C101.804 6.59055 102.132 7.00294 102.125 7.69812C102.12 8.30556 101.766 8.66225 101.133 8.66425C99.216 8.67028 97.2993 8.67737 95.3829 8.65801C94.9866 8.65401 94.8497 8.75527 94.8665 9.16544C94.8983 9.94189 94.8898 10.7209 94.8692 11.4981C94.8605 11.8279 94.9703 11.9254 95.2961 11.9229C97.0042 11.9094 98.7126 11.9164 100.421 11.9169C101.285 11.9172 101.629 12.2186 101.625 12.9711C101.622 13.6052 101.153 13.9979 100.381 13.9991C98.7006 14.0019 97.02 14.0099 95.3397 13.9924C94.9775 13.9887 94.8498 14.0855 94.8678 14.4587C94.8971 15.0683 94.8756 15.6804 94.8756 16.3331Z" fill="#5E636E"/>
<path d="M69.5588 6.33364C70.1506 6.28488 70.5444 6.5232 70.8372 6.99009C71.6708 8.31928 72.5168 9.64066 73.3922 11.0192C73.8971 10.2479 74.3761 9.49733 74.8747 8.76002C75.3527 8.0531 75.8219 7.33691 76.3508 6.66888C76.6959 6.23291 77.3638 6.20214 77.8675 6.49901C78.3148 6.76261 78.5442 7.30002 78.2839 7.83214C77.8745 8.66905 77.3877 9.47134 76.891 10.2614C76.3849 11.0665 75.8326 11.843 75.2884 12.6235C75.1327 12.8466 75.1274 13.0137 75.2848 13.252C76.2423 14.702 77.1865 16.1609 78.1203 17.6263C78.4087 18.0788 78.7093 18.554 78.592 19.1274C78.4943 19.6051 78.2042 19.9662 77.7061 20.0636C77.0769 20.1867 76.5228 20.0465 76.1513 19.4659C75.3263 18.1766 74.5013 16.8874 73.6762 15.5983C73.5734 15.4378 73.4696 15.278 73.3301 15.0619C73.1067 15.3967 72.9101 15.6885 72.7163 15.9821C71.9717 17.1102 71.2139 18.2299 70.4894 19.3709C70.0913 19.9979 69.5313 20.1661 68.8492 20.0746C68.4032 20.0148 68.0857 19.6179 68.0394 19.1561C67.9569 18.333 68.3626 17.687 68.7882 17.0561C69.667 15.7532 70.5635 14.4622 71.4609 13.1719C71.5964 12.9771 71.5485 12.8493 71.4308 12.6638C70.5072 11.209 69.5914 9.74902 68.6953 8.27718C68.5584 8.05229 68.4853 7.76129 68.4689 7.49556C68.4268 6.81211 68.8228 6.39918 69.5588 6.33364Z" fill="#5E636E"/>
<path d="M43.0354 12.4074C43.62 10.6776 44.1969 8.98003 44.7759 7.28318C45.0276 6.54583 45.478 6.26002 46.2579 6.33578C46.7808 6.38657 47.3124 6.91359 47.3504 7.52028C47.3702 7.83778 47.2773 8.18006 47.1651 8.4854C45.906 11.9141 44.6347 15.3384 43.3633 18.7625C42.8181 20.2308 41.2456 20.4696 40.2888 19.714C39.8784 19.3899 39.6102 18.8125 39.4178 18.2977C38.1972 15.0309 37.01 11.7515 35.8303 8.46967C35.7079 8.12929 35.6263 7.73616 35.6672 7.3839C35.7322 6.82385 36.2939 6.3631 36.7969 6.33434C37.6036 6.28822 38.0234 6.52559 38.2779 7.24697C38.7412 8.56045 39.1765 9.88382 39.6246 11.2027C40.2325 12.9915 40.8414 14.78 41.4504 16.5684C41.467 16.617 41.4902 16.6632 41.5546 16.8144C42.0664 15.2953 42.5475 13.8676 43.0354 12.4074Z" fill="#5E636E"/>
<path d="M85.6645 6.52172C86.1283 6.88241 86.2903 7.35356 86.2907 7.88782C86.2934 11.4403 86.3011 14.9929 86.2876 18.5453C86.2821 19.968 85.2038 20.3752 84.1897 19.9373C83.7136 19.7318 83.5541 19.269 83.5521 18.8066C83.5361 15.0738 83.5327 11.3408 83.5498 7.60798C83.5547 6.53803 84.5182 6.05063 85.6645 6.52172Z" fill="#5E636E"/>
<path fill-rule="evenodd" clip-rule="evenodd" d="M28.7089 15.5001C28.7089 15.9192 28.7092 16.3343 28.7095 16.7466C28.7101 17.6595 28.7108 18.5587 28.7082 19.4579C28.7028 21.3869 28.0744 23.0601 26.6242 24.3701C25.636 25.2627 24.4776 25.8734 23.1362 25.9025C19.8219 25.9743 16.5055 26.0076 13.1908 25.976C12.3296 25.9678 11.6981 26.2518 11.0646 26.7588C10.1864 27.4618 9.29166 28.1441 8.39693 28.8264L8.39619 28.8269L8.39561 28.8274C8.03137 29.1051 7.66713 29.3829 7.304 29.6621C7.21273 29.7322 7.12089 29.8016 7.00952 29.8858L7.0095 29.8858L7.00929 29.886L6.81565 30.0325V26.0323C6.64535 26.0062 6.47844 25.9857 6.31478 25.9656L6.31466 25.9656L6.31454 25.9656C5.96945 25.9233 5.63876 25.8827 5.32107 25.795C2.89392 25.1255 1.34066 23.5685 0.723066 21.121C0.599677 20.632 0.551316 20.1121 0.549795 19.6062C0.541736 16.9254 0.541934 14.2447 0.542132 11.5639C0.542256 9.88403 0.54238 8.20418 0.540472 6.52433C0.538826 5.07443 0.89202 3.73244 1.7645 2.56409C2.80637 1.16891 4.16987 0.278797 5.93154 0.0847205C6.41094 0.0319067 6.89559 0.00411885 7.37787 0.00356635C9.21589 0.0014616 11.0539 0.00277927 12.892 0.00409693C16.0534 0.00636331 19.2148 0.00862969 22.3762 -0.00651876C25.3453 -0.0207463 27.9237 2.04501 28.5341 4.9017C28.6371 5.38362 28.6989 5.88393 28.7014 6.37614C28.7127 8.64566 28.7113 10.9152 28.7099 13.2024V13.203V13.2065V13.2099V13.2134C28.7094 13.9734 28.7089 14.7355 28.7089 15.5001ZM14.6538 14.1219L15.1532 15.0027L15.1543 15.0047C15.6357 15.8537 16.1171 16.7027 16.598 17.552C16.6799 17.6967 16.7601 17.8423 16.846 17.9983L16.8462 17.9987C16.8878 18.0741 16.9307 18.152 16.9757 18.2334C16.7333 18.3612 16.4983 18.5045 16.2639 18.6474C15.5677 19.072 14.8765 19.4935 14.008 19.4966C12.8664 19.5005 11.9644 18.9858 11.3945 18.0245C10.4897 16.4982 9.60618 14.9592 8.72266 13.4202L8.72262 13.4201C8.18166 12.4778 7.64069 11.5355 7.09482 10.5961C6.2846 9.20175 7.19332 7.51377 8.53883 7.21984C9.54594 6.99983 10.5771 7.17177 11.2045 8.22798C11.8485 9.31229 12.4759 10.4065 13.1034 11.5006C13.3823 11.987 13.6612 12.4735 13.9416 12.959C14.1614 13.3396 14.3837 13.7187 14.6322 14.1099C14.6595 14.1213 14.6538 14.1219 14.6538 14.1219ZM19.0767 7.29902C18.3689 7.51623 18.0004 8.12016 17.718 8.76864C17.7117 9.12817 17.7053 9.4877 17.696 9.88647C17.7712 10.1315 17.8485 10.3484 17.9308 10.579C17.9455 10.6203 17.9604 10.662 17.9755 10.7045C18.4332 11.3616 19.0221 11.7645 19.8363 11.8623C20.1232 11.848 20.3766 11.8281 20.6674 11.8024C20.9214 11.6866 21.1534 11.5742 21.4041 11.4528C21.4804 11.4158 21.5585 11.378 21.6395 11.339C22.3149 10.6154 22.5691 9.76845 22.3379 8.88841C21.9006 7.2236 20.4677 6.87213 19.0767 7.29902Z" fill="#5E636E"/>
</g>
<defs>
<clipPath id="clip0_194_6120">
<rect width="101.833" height="30" fill="white" transform="translate(0.542236)"/>
</clipPath>
</defs>
</svg>
